<mxfile host="app.diagrams.net" modified="2022-10-31T06:27:22.269Z" agent="5.0 (Windows NT 10.0; Win64; x64) AppleWebKit/537.36 (KHTML, like Gecko) Chrome/105.0.0.0 Safari/537.36 OPR/91.0.4516.72" etag="2g0PPhgHmDKvWWuYFHA6" version="20.4.0" type="github">
  <diagram id="wx75KCt-DcemsbIt59YZ" name="Page-1">
    <mxGraphModel dx="1381" dy="795" grid="0" gridSize="10" guides="1" tooltips="1" connect="1" arrows="1" fold="1" page="1" pageScale="1" pageWidth="1920" pageHeight="1200" background="#282D3B" math="0" shadow="0">
      <root>
        <mxCell id="0" />
        <mxCell id="1" parent="0" />
        <mxCell id="KBO7zZZN5OWcddZGr8ii-1" value="users" style="shape=table;startSize=30;container=1;collapsible=1;childLayout=tableLayout;fixedRows=1;rowLines=0;fontStyle=1;align=center;resizeLast=1;fillColor=#09555B;strokeColor=#BAC8D3;fontColor=#EEEEEE;rounded=1;" vertex="1" parent="1">
          <mxGeometry x="47" y="16" width="180" height="160" as="geometry" />
        </mxCell>
        <mxCell id="KBO7zZZN5OWcddZGr8ii-2" value="" style="shape=tableRow;horizontal=0;startSize=0;swimlaneHead=0;swimlaneBody=0;fillColor=none;collapsible=0;dropTarget=0;points=[[0,0.5],[1,0.5]];portConstraint=eastwest;top=0;left=0;right=0;bottom=1;strokeColor=#BAC8D3;fontColor=#EEEEEE;rounded=1;" vertex="1" parent="KBO7zZZN5OWcddZGr8ii-1">
          <mxGeometry y="30" width="180" height="30" as="geometry" />
        </mxCell>
        <mxCell id="KBO7zZZN5OWcddZGr8ii-3" value="PK" style="shape=partialRectangle;connectable=0;fillColor=none;top=0;left=0;bottom=0;right=0;fontStyle=1;overflow=hidden;strokeColor=#BAC8D3;fontColor=#EEEEEE;rounded=1;" vertex="1" parent="KBO7zZZN5OWcddZGr8ii-2">
          <mxGeometry width="30" height="30" as="geometry">
            <mxRectangle width="30" height="30" as="alternateBounds" />
          </mxGeometry>
        </mxCell>
        <mxCell id="KBO7zZZN5OWcddZGr8ii-4" value="id" style="shape=partialRectangle;connectable=0;fillColor=none;top=0;left=0;bottom=0;right=0;align=left;spacingLeft=6;fontStyle=5;overflow=hidden;strokeColor=#BAC8D3;fontColor=#EEEEEE;rounded=1;" vertex="1" parent="KBO7zZZN5OWcddZGr8ii-2">
          <mxGeometry x="30" width="150" height="30" as="geometry">
            <mxRectangle width="150" height="30" as="alternateBounds" />
          </mxGeometry>
        </mxCell>
        <mxCell id="KBO7zZZN5OWcddZGr8ii-5" value="" style="shape=tableRow;horizontal=0;startSize=0;swimlaneHead=0;swimlaneBody=0;fillColor=none;collapsible=0;dropTarget=0;points=[[0,0.5],[1,0.5]];portConstraint=eastwest;top=0;left=0;right=0;bottom=0;strokeColor=#BAC8D3;fontColor=#EEEEEE;rounded=1;" vertex="1" parent="KBO7zZZN5OWcddZGr8ii-1">
          <mxGeometry y="60" width="180" height="30" as="geometry" />
        </mxCell>
        <mxCell id="KBO7zZZN5OWcddZGr8ii-6" value="" style="shape=partialRectangle;connectable=0;fillColor=none;top=0;left=0;bottom=0;right=0;editable=1;overflow=hidden;strokeColor=#BAC8D3;fontColor=#EEEEEE;rounded=1;" vertex="1" parent="KBO7zZZN5OWcddZGr8ii-5">
          <mxGeometry width="30" height="30" as="geometry">
            <mxRectangle width="30" height="30" as="alternateBounds" />
          </mxGeometry>
        </mxCell>
        <mxCell id="KBO7zZZN5OWcddZGr8ii-7" value="username" style="shape=partialRectangle;connectable=0;fillColor=none;top=0;left=0;bottom=0;right=0;align=left;spacingLeft=6;overflow=hidden;strokeColor=#BAC8D3;fontColor=#EEEEEE;rounded=1;" vertex="1" parent="KBO7zZZN5OWcddZGr8ii-5">
          <mxGeometry x="30" width="150" height="30" as="geometry">
            <mxRectangle width="150" height="30" as="alternateBounds" />
          </mxGeometry>
        </mxCell>
        <mxCell id="KBO7zZZN5OWcddZGr8ii-8" style="shape=tableRow;horizontal=0;startSize=0;swimlaneHead=0;swimlaneBody=0;fillColor=none;collapsible=0;dropTarget=0;points=[[0,0.5],[1,0.5]];portConstraint=eastwest;top=0;left=0;right=0;bottom=0;strokeColor=#BAC8D3;fontColor=#EEEEEE;rounded=1;" vertex="1" parent="KBO7zZZN5OWcddZGr8ii-1">
          <mxGeometry y="90" width="180" height="30" as="geometry" />
        </mxCell>
        <mxCell id="KBO7zZZN5OWcddZGr8ii-9" style="shape=partialRectangle;connectable=0;fillColor=none;top=0;left=0;bottom=0;right=0;editable=1;overflow=hidden;strokeColor=#BAC8D3;fontColor=#EEEEEE;rounded=1;" vertex="1" parent="KBO7zZZN5OWcddZGr8ii-8">
          <mxGeometry width="30" height="30" as="geometry">
            <mxRectangle width="30" height="30" as="alternateBounds" />
          </mxGeometry>
        </mxCell>
        <mxCell id="KBO7zZZN5OWcddZGr8ii-10" value="email" style="shape=partialRectangle;connectable=0;fillColor=none;top=0;left=0;bottom=0;right=0;align=left;spacingLeft=6;overflow=hidden;strokeColor=#BAC8D3;fontColor=#EEEEEE;rounded=1;" vertex="1" parent="KBO7zZZN5OWcddZGr8ii-8">
          <mxGeometry x="30" width="150" height="30" as="geometry">
            <mxRectangle width="150" height="30" as="alternateBounds" />
          </mxGeometry>
        </mxCell>
        <mxCell id="KBO7zZZN5OWcddZGr8ii-45" style="shape=tableRow;horizontal=0;startSize=0;swimlaneHead=0;swimlaneBody=0;fillColor=none;collapsible=0;dropTarget=0;points=[[0,0.5],[1,0.5]];portConstraint=eastwest;top=0;left=0;right=0;bottom=0;strokeColor=#BAC8D3;fontColor=#EEEEEE;rounded=1;" vertex="1" parent="KBO7zZZN5OWcddZGr8ii-1">
          <mxGeometry y="120" width="180" height="30" as="geometry" />
        </mxCell>
        <mxCell id="KBO7zZZN5OWcddZGr8ii-46" style="shape=partialRectangle;connectable=0;fillColor=none;top=0;left=0;bottom=0;right=0;editable=1;overflow=hidden;strokeColor=#BAC8D3;fontColor=#EEEEEE;rounded=1;" vertex="1" parent="KBO7zZZN5OWcddZGr8ii-45">
          <mxGeometry width="30" height="30" as="geometry">
            <mxRectangle width="30" height="30" as="alternateBounds" />
          </mxGeometry>
        </mxCell>
        <mxCell id="KBO7zZZN5OWcddZGr8ii-47" value="password_digest" style="shape=partialRectangle;connectable=0;fillColor=none;top=0;left=0;bottom=0;right=0;align=left;spacingLeft=6;overflow=hidden;strokeColor=#BAC8D3;fontColor=#EEEEEE;rounded=1;" vertex="1" parent="KBO7zZZN5OWcddZGr8ii-45">
          <mxGeometry x="30" width="150" height="30" as="geometry">
            <mxRectangle width="150" height="30" as="alternateBounds" />
          </mxGeometry>
        </mxCell>
        <mxCell id="KBO7zZZN5OWcddZGr8ii-11" value="characters" style="shape=table;startSize=30;container=1;collapsible=1;childLayout=tableLayout;fixedRows=1;rowLines=0;fontStyle=1;align=center;resizeLast=1;fillColor=#09555B;strokeColor=#BAC8D3;fontColor=#EEEEEE;rounded=1;" vertex="1" parent="1">
          <mxGeometry x="325" y="12" width="180" height="1176" as="geometry" />
        </mxCell>
        <mxCell id="KBO7zZZN5OWcddZGr8ii-12" value="" style="shape=tableRow;horizontal=0;startSize=0;swimlaneHead=0;swimlaneBody=0;fillColor=none;collapsible=0;dropTarget=0;points=[[0,0.5],[1,0.5]];portConstraint=eastwest;top=0;left=0;right=0;bottom=1;strokeColor=#BAC8D3;fontColor=#EEEEEE;rounded=1;" vertex="1" parent="KBO7zZZN5OWcddZGr8ii-11">
          <mxGeometry y="30" width="180" height="30" as="geometry" />
        </mxCell>
        <mxCell id="KBO7zZZN5OWcddZGr8ii-13" value="PK" style="shape=partialRectangle;connectable=0;fillColor=none;top=0;left=0;bottom=0;right=0;fontStyle=1;overflow=hidden;strokeColor=#BAC8D3;fontColor=#EEEEEE;rounded=1;" vertex="1" parent="KBO7zZZN5OWcddZGr8ii-12">
          <mxGeometry width="30" height="30" as="geometry">
            <mxRectangle width="30" height="30" as="alternateBounds" />
          </mxGeometry>
        </mxCell>
        <mxCell id="KBO7zZZN5OWcddZGr8ii-14" value="id" style="shape=partialRectangle;connectable=0;fillColor=none;top=0;left=0;bottom=0;right=0;align=left;spacingLeft=6;fontStyle=5;overflow=hidden;strokeColor=#BAC8D3;fontColor=#EEEEEE;rounded=1;" vertex="1" parent="KBO7zZZN5OWcddZGr8ii-12">
          <mxGeometry x="30" width="150" height="30" as="geometry">
            <mxRectangle width="150" height="30" as="alternateBounds" />
          </mxGeometry>
        </mxCell>
        <mxCell id="KBO7zZZN5OWcddZGr8ii-15" value="" style="shape=tableRow;horizontal=0;startSize=0;swimlaneHead=0;swimlaneBody=0;fillColor=none;collapsible=0;dropTarget=0;points=[[0,0.5],[1,0.5]];portConstraint=eastwest;top=0;left=0;right=0;bottom=0;strokeColor=#BAC8D3;fontColor=#EEEEEE;rounded=1;" vertex="1" parent="KBO7zZZN5OWcddZGr8ii-11">
          <mxGeometry y="60" width="180" height="30" as="geometry" />
        </mxCell>
        <mxCell id="KBO7zZZN5OWcddZGr8ii-16" value="FK" style="shape=partialRectangle;connectable=0;fillColor=none;top=0;left=0;bottom=0;right=0;editable=1;overflow=hidden;strokeColor=#BAC8D3;fontColor=#EEEEEE;rounded=1;" vertex="1" parent="KBO7zZZN5OWcddZGr8ii-15">
          <mxGeometry width="30" height="30" as="geometry">
            <mxRectangle width="30" height="30" as="alternateBounds" />
          </mxGeometry>
        </mxCell>
        <mxCell id="KBO7zZZN5OWcddZGr8ii-17" value="user_id" style="shape=partialRectangle;connectable=0;fillColor=none;top=0;left=0;bottom=0;right=0;align=left;spacingLeft=6;overflow=hidden;strokeColor=#BAC8D3;fontColor=#EEEEEE;rounded=1;" vertex="1" parent="KBO7zZZN5OWcddZGr8ii-15">
          <mxGeometry x="30" width="150" height="30" as="geometry">
            <mxRectangle width="150" height="30" as="alternateBounds" />
          </mxGeometry>
        </mxCell>
        <mxCell id="KBO7zZZN5OWcddZGr8ii-18" style="shape=tableRow;horizontal=0;startSize=0;swimlaneHead=0;swimlaneBody=0;fillColor=none;collapsible=0;dropTarget=0;points=[[0,0.5],[1,0.5]];portConstraint=eastwest;top=0;left=0;right=0;bottom=0;strokeColor=#BAC8D3;fontColor=#EEEEEE;rounded=1;" vertex="1" parent="KBO7zZZN5OWcddZGr8ii-11">
          <mxGeometry y="90" width="180" height="30" as="geometry" />
        </mxCell>
        <mxCell id="KBO7zZZN5OWcddZGr8ii-19" style="shape=partialRectangle;connectable=0;fillColor=none;top=0;left=0;bottom=0;right=0;editable=1;overflow=hidden;strokeColor=#BAC8D3;fontColor=#EEEEEE;rounded=1;" vertex="1" parent="KBO7zZZN5OWcddZGr8ii-18">
          <mxGeometry width="30" height="30" as="geometry">
            <mxRectangle width="30" height="30" as="alternateBounds" />
          </mxGeometry>
        </mxCell>
        <mxCell id="KBO7zZZN5OWcddZGr8ii-20" value="name" style="shape=partialRectangle;connectable=0;fillColor=none;top=0;left=0;bottom=0;right=0;align=left;spacingLeft=6;overflow=hidden;strokeColor=#BAC8D3;fontColor=#EEEEEE;rounded=1;" vertex="1" parent="KBO7zZZN5OWcddZGr8ii-18">
          <mxGeometry x="30" width="150" height="30" as="geometry">
            <mxRectangle width="150" height="30" as="alternateBounds" />
          </mxGeometry>
        </mxCell>
        <mxCell id="KBO7zZZN5OWcddZGr8ii-48" style="shape=tableRow;horizontal=0;startSize=0;swimlaneHead=0;swimlaneBody=0;fillColor=none;collapsible=0;dropTarget=0;points=[[0,0.5],[1,0.5]];portConstraint=eastwest;top=0;left=0;right=0;bottom=0;strokeColor=#BAC8D3;fontColor=#EEEEEE;rounded=1;" vertex="1" parent="KBO7zZZN5OWcddZGr8ii-11">
          <mxGeometry y="120" width="180" height="30" as="geometry" />
        </mxCell>
        <mxCell id="KBO7zZZN5OWcddZGr8ii-49" style="shape=partialRectangle;connectable=0;fillColor=none;top=0;left=0;bottom=0;right=0;editable=1;overflow=hidden;strokeColor=#BAC8D3;fontColor=#EEEEEE;rounded=1;" vertex="1" parent="KBO7zZZN5OWcddZGr8ii-48">
          <mxGeometry width="30" height="30" as="geometry">
            <mxRectangle width="30" height="30" as="alternateBounds" />
          </mxGeometry>
        </mxCell>
        <mxCell id="KBO7zZZN5OWcddZGr8ii-50" value="class" style="shape=partialRectangle;connectable=0;fillColor=none;top=0;left=0;bottom=0;right=0;align=left;spacingLeft=6;overflow=hidden;strokeColor=#BAC8D3;fontColor=#EEEEEE;rounded=1;" vertex="1" parent="KBO7zZZN5OWcddZGr8ii-48">
          <mxGeometry x="30" width="150" height="30" as="geometry">
            <mxRectangle width="150" height="30" as="alternateBounds" />
          </mxGeometry>
        </mxCell>
        <mxCell id="KBO7zZZN5OWcddZGr8ii-90" style="shape=tableRow;horizontal=0;startSize=0;swimlaneHead=0;swimlaneBody=0;fillColor=none;collapsible=0;dropTarget=0;points=[[0,0.5],[1,0.5]];portConstraint=eastwest;top=0;left=0;right=0;bottom=0;strokeColor=#BAC8D3;fontColor=#EEEEEE;rounded=1;" vertex="1" parent="KBO7zZZN5OWcddZGr8ii-11">
          <mxGeometry y="150" width="180" height="30" as="geometry" />
        </mxCell>
        <mxCell id="KBO7zZZN5OWcddZGr8ii-91" style="shape=partialRectangle;connectable=0;fillColor=none;top=0;left=0;bottom=0;right=0;editable=1;overflow=hidden;strokeColor=#BAC8D3;fontColor=#EEEEEE;rounded=1;" vertex="1" parent="KBO7zZZN5OWcddZGr8ii-90">
          <mxGeometry width="30" height="30" as="geometry">
            <mxRectangle width="30" height="30" as="alternateBounds" />
          </mxGeometry>
        </mxCell>
        <mxCell id="KBO7zZZN5OWcddZGr8ii-92" value="race" style="shape=partialRectangle;connectable=0;fillColor=none;top=0;left=0;bottom=0;right=0;align=left;spacingLeft=6;overflow=hidden;strokeColor=#BAC8D3;fontColor=#EEEEEE;rounded=1;" vertex="1" parent="KBO7zZZN5OWcddZGr8ii-90">
          <mxGeometry x="30" width="150" height="30" as="geometry">
            <mxRectangle width="150" height="30" as="alternateBounds" />
          </mxGeometry>
        </mxCell>
        <mxCell id="KBO7zZZN5OWcddZGr8ii-51" style="shape=tableRow;horizontal=0;startSize=0;swimlaneHead=0;swimlaneBody=0;fillColor=none;collapsible=0;dropTarget=0;points=[[0,0.5],[1,0.5]];portConstraint=eastwest;top=0;left=0;right=0;bottom=0;strokeColor=#BAC8D3;fontColor=#EEEEEE;rounded=1;" vertex="1" parent="KBO7zZZN5OWcddZGr8ii-11">
          <mxGeometry y="180" width="180" height="30" as="geometry" />
        </mxCell>
        <mxCell id="KBO7zZZN5OWcddZGr8ii-52" style="shape=partialRectangle;connectable=0;fillColor=none;top=0;left=0;bottom=0;right=0;editable=1;overflow=hidden;strokeColor=#BAC8D3;fontColor=#EEEEEE;rounded=1;" vertex="1" parent="KBO7zZZN5OWcddZGr8ii-51">
          <mxGeometry width="30" height="30" as="geometry">
            <mxRectangle width="30" height="30" as="alternateBounds" />
          </mxGeometry>
        </mxCell>
        <mxCell id="KBO7zZZN5OWcddZGr8ii-53" value="level" style="shape=partialRectangle;connectable=0;fillColor=none;top=0;left=0;bottom=0;right=0;align=left;spacingLeft=6;overflow=hidden;strokeColor=#BAC8D3;fontColor=#EEEEEE;rounded=1;" vertex="1" parent="KBO7zZZN5OWcddZGr8ii-51">
          <mxGeometry x="30" width="150" height="30" as="geometry">
            <mxRectangle width="150" height="30" as="alternateBounds" />
          </mxGeometry>
        </mxCell>
        <mxCell id="KBO7zZZN5OWcddZGr8ii-93" style="shape=tableRow;horizontal=0;startSize=0;swimlaneHead=0;swimlaneBody=0;fillColor=none;collapsible=0;dropTarget=0;points=[[0,0.5],[1,0.5]];portConstraint=eastwest;top=0;left=0;right=0;bottom=0;strokeColor=#BAC8D3;fontColor=#EEEEEE;rounded=1;" vertex="1" parent="KBO7zZZN5OWcddZGr8ii-11">
          <mxGeometry y="210" width="180" height="30" as="geometry" />
        </mxCell>
        <mxCell id="KBO7zZZN5OWcddZGr8ii-94" style="shape=partialRectangle;connectable=0;fillColor=none;top=0;left=0;bottom=0;right=0;editable=1;overflow=hidden;strokeColor=#BAC8D3;fontColor=#EEEEEE;rounded=1;" vertex="1" parent="KBO7zZZN5OWcddZGr8ii-93">
          <mxGeometry width="30" height="30" as="geometry">
            <mxRectangle width="30" height="30" as="alternateBounds" />
          </mxGeometry>
        </mxCell>
        <mxCell id="KBO7zZZN5OWcddZGr8ii-95" value="background" style="shape=partialRectangle;connectable=0;fillColor=none;top=0;left=0;bottom=0;right=0;align=left;spacingLeft=6;overflow=hidden;strokeColor=#BAC8D3;fontColor=#EEEEEE;rounded=1;" vertex="1" parent="KBO7zZZN5OWcddZGr8ii-93">
          <mxGeometry x="30" width="150" height="30" as="geometry">
            <mxRectangle width="150" height="30" as="alternateBounds" />
          </mxGeometry>
        </mxCell>
        <mxCell id="KBO7zZZN5OWcddZGr8ii-54" style="shape=tableRow;horizontal=0;startSize=0;swimlaneHead=0;swimlaneBody=0;fillColor=none;collapsible=0;dropTarget=0;points=[[0,0.5],[1,0.5]];portConstraint=eastwest;top=0;left=0;right=0;bottom=0;strokeColor=#BAC8D3;fontColor=#EEEEEE;rounded=1;" vertex="1" parent="KBO7zZZN5OWcddZGr8ii-11">
          <mxGeometry y="240" width="180" height="30" as="geometry" />
        </mxCell>
        <mxCell id="KBO7zZZN5OWcddZGr8ii-55" style="shape=partialRectangle;connectable=0;fillColor=none;top=0;left=0;bottom=0;right=0;editable=1;overflow=hidden;strokeColor=#BAC8D3;fontColor=#EEEEEE;rounded=1;" vertex="1" parent="KBO7zZZN5OWcddZGr8ii-54">
          <mxGeometry width="30" height="30" as="geometry">
            <mxRectangle width="30" height="30" as="alternateBounds" />
          </mxGeometry>
        </mxCell>
        <mxCell id="KBO7zZZN5OWcddZGr8ii-56" value="alignment" style="shape=partialRectangle;connectable=0;fillColor=none;top=0;left=0;bottom=0;right=0;align=left;spacingLeft=6;overflow=hidden;strokeColor=#BAC8D3;fontColor=#EEEEEE;rounded=1;" vertex="1" parent="KBO7zZZN5OWcddZGr8ii-54">
          <mxGeometry x="30" width="150" height="30" as="geometry">
            <mxRectangle width="150" height="30" as="alternateBounds" />
          </mxGeometry>
        </mxCell>
        <mxCell id="KBO7zZZN5OWcddZGr8ii-57" style="shape=tableRow;horizontal=0;startSize=0;swimlaneHead=0;swimlaneBody=0;fillColor=none;collapsible=0;dropTarget=0;points=[[0,0.5],[1,0.5]];portConstraint=eastwest;top=0;left=0;right=0;bottom=0;strokeColor=#BAC8D3;fontColor=#EEEEEE;rounded=1;" vertex="1" parent="KBO7zZZN5OWcddZGr8ii-11">
          <mxGeometry y="270" width="180" height="30" as="geometry" />
        </mxCell>
        <mxCell id="KBO7zZZN5OWcddZGr8ii-58" style="shape=partialRectangle;connectable=0;fillColor=none;top=0;left=0;bottom=0;right=0;editable=1;overflow=hidden;strokeColor=#BAC8D3;fontColor=#EEEEEE;rounded=1;" vertex="1" parent="KBO7zZZN5OWcddZGr8ii-57">
          <mxGeometry width="30" height="30" as="geometry">
            <mxRectangle width="30" height="30" as="alternateBounds" />
          </mxGeometry>
        </mxCell>
        <mxCell id="KBO7zZZN5OWcddZGr8ii-59" value="strength" style="shape=partialRectangle;connectable=0;fillColor=none;top=0;left=0;bottom=0;right=0;align=left;spacingLeft=6;overflow=hidden;strokeColor=#BAC8D3;fontColor=#EEEEEE;rounded=1;" vertex="1" parent="KBO7zZZN5OWcddZGr8ii-57">
          <mxGeometry x="30" width="150" height="30" as="geometry">
            <mxRectangle width="150" height="30" as="alternateBounds" />
          </mxGeometry>
        </mxCell>
        <mxCell id="KBO7zZZN5OWcddZGr8ii-60" style="shape=tableRow;horizontal=0;startSize=0;swimlaneHead=0;swimlaneBody=0;fillColor=none;collapsible=0;dropTarget=0;points=[[0,0.5],[1,0.5]];portConstraint=eastwest;top=0;left=0;right=0;bottom=0;strokeColor=#BAC8D3;fontColor=#EEEEEE;rounded=1;" vertex="1" parent="KBO7zZZN5OWcddZGr8ii-11">
          <mxGeometry y="300" width="180" height="30" as="geometry" />
        </mxCell>
        <mxCell id="KBO7zZZN5OWcddZGr8ii-61" style="shape=partialRectangle;connectable=0;fillColor=none;top=0;left=0;bottom=0;right=0;editable=1;overflow=hidden;strokeColor=#BAC8D3;fontColor=#EEEEEE;rounded=1;" vertex="1" parent="KBO7zZZN5OWcddZGr8ii-60">
          <mxGeometry width="30" height="30" as="geometry">
            <mxRectangle width="30" height="30" as="alternateBounds" />
          </mxGeometry>
        </mxCell>
        <mxCell id="KBO7zZZN5OWcddZGr8ii-62" value="dexterity" style="shape=partialRectangle;connectable=0;fillColor=none;top=0;left=0;bottom=0;right=0;align=left;spacingLeft=6;overflow=hidden;strokeColor=#BAC8D3;fontColor=#EEEEEE;rounded=1;" vertex="1" parent="KBO7zZZN5OWcddZGr8ii-60">
          <mxGeometry x="30" width="150" height="30" as="geometry">
            <mxRectangle width="150" height="30" as="alternateBounds" />
          </mxGeometry>
        </mxCell>
        <mxCell id="KBO7zZZN5OWcddZGr8ii-72" style="shape=tableRow;horizontal=0;startSize=0;swimlaneHead=0;swimlaneBody=0;fillColor=none;collapsible=0;dropTarget=0;points=[[0,0.5],[1,0.5]];portConstraint=eastwest;top=0;left=0;right=0;bottom=0;strokeColor=#BAC8D3;fontColor=#EEEEEE;rounded=1;" vertex="1" parent="KBO7zZZN5OWcddZGr8ii-11">
          <mxGeometry y="330" width="180" height="30" as="geometry" />
        </mxCell>
        <mxCell id="KBO7zZZN5OWcddZGr8ii-73" style="shape=partialRectangle;connectable=0;fillColor=none;top=0;left=0;bottom=0;right=0;editable=1;overflow=hidden;strokeColor=#BAC8D3;fontColor=#EEEEEE;rounded=1;" vertex="1" parent="KBO7zZZN5OWcddZGr8ii-72">
          <mxGeometry width="30" height="30" as="geometry">
            <mxRectangle width="30" height="30" as="alternateBounds" />
          </mxGeometry>
        </mxCell>
        <mxCell id="KBO7zZZN5OWcddZGr8ii-74" value="constitution" style="shape=partialRectangle;connectable=0;fillColor=none;top=0;left=0;bottom=0;right=0;align=left;spacingLeft=6;overflow=hidden;strokeColor=#BAC8D3;fontColor=#EEEEEE;rounded=1;" vertex="1" parent="KBO7zZZN5OWcddZGr8ii-72">
          <mxGeometry x="30" width="150" height="30" as="geometry">
            <mxRectangle width="150" height="30" as="alternateBounds" />
          </mxGeometry>
        </mxCell>
        <mxCell id="KBO7zZZN5OWcddZGr8ii-69" style="shape=tableRow;horizontal=0;startSize=0;swimlaneHead=0;swimlaneBody=0;fillColor=none;collapsible=0;dropTarget=0;points=[[0,0.5],[1,0.5]];portConstraint=eastwest;top=0;left=0;right=0;bottom=0;strokeColor=#BAC8D3;fontColor=#EEEEEE;rounded=1;" vertex="1" parent="KBO7zZZN5OWcddZGr8ii-11">
          <mxGeometry y="360" width="180" height="30" as="geometry" />
        </mxCell>
        <mxCell id="KBO7zZZN5OWcddZGr8ii-70" style="shape=partialRectangle;connectable=0;fillColor=none;top=0;left=0;bottom=0;right=0;editable=1;overflow=hidden;strokeColor=#BAC8D3;fontColor=#EEEEEE;rounded=1;" vertex="1" parent="KBO7zZZN5OWcddZGr8ii-69">
          <mxGeometry width="30" height="30" as="geometry">
            <mxRectangle width="30" height="30" as="alternateBounds" />
          </mxGeometry>
        </mxCell>
        <mxCell id="KBO7zZZN5OWcddZGr8ii-71" value="intelligence" style="shape=partialRectangle;connectable=0;fillColor=none;top=0;left=0;bottom=0;right=0;align=left;spacingLeft=6;overflow=hidden;strokeColor=#BAC8D3;fontColor=#EEEEEE;rounded=1;" vertex="1" parent="KBO7zZZN5OWcddZGr8ii-69">
          <mxGeometry x="30" width="150" height="30" as="geometry">
            <mxRectangle width="150" height="30" as="alternateBounds" />
          </mxGeometry>
        </mxCell>
        <mxCell id="KBO7zZZN5OWcddZGr8ii-66" style="shape=tableRow;horizontal=0;startSize=0;swimlaneHead=0;swimlaneBody=0;fillColor=none;collapsible=0;dropTarget=0;points=[[0,0.5],[1,0.5]];portConstraint=eastwest;top=0;left=0;right=0;bottom=0;strokeColor=#BAC8D3;fontColor=#EEEEEE;rounded=1;" vertex="1" parent="KBO7zZZN5OWcddZGr8ii-11">
          <mxGeometry y="390" width="180" height="30" as="geometry" />
        </mxCell>
        <mxCell id="KBO7zZZN5OWcddZGr8ii-67" style="shape=partialRectangle;connectable=0;fillColor=none;top=0;left=0;bottom=0;right=0;editable=1;overflow=hidden;strokeColor=#BAC8D3;fontColor=#EEEEEE;rounded=1;" vertex="1" parent="KBO7zZZN5OWcddZGr8ii-66">
          <mxGeometry width="30" height="30" as="geometry">
            <mxRectangle width="30" height="30" as="alternateBounds" />
          </mxGeometry>
        </mxCell>
        <mxCell id="KBO7zZZN5OWcddZGr8ii-68" value="wisdom" style="shape=partialRectangle;connectable=0;fillColor=none;top=0;left=0;bottom=0;right=0;align=left;spacingLeft=6;overflow=hidden;strokeColor=#BAC8D3;fontColor=#EEEEEE;rounded=1;" vertex="1" parent="KBO7zZZN5OWcddZGr8ii-66">
          <mxGeometry x="30" width="150" height="30" as="geometry">
            <mxRectangle width="150" height="30" as="alternateBounds" />
          </mxGeometry>
        </mxCell>
        <mxCell id="KBO7zZZN5OWcddZGr8ii-63" style="shape=tableRow;horizontal=0;startSize=0;swimlaneHead=0;swimlaneBody=0;fillColor=none;collapsible=0;dropTarget=0;points=[[0,0.5],[1,0.5]];portConstraint=eastwest;top=0;left=0;right=0;bottom=0;strokeColor=#BAC8D3;fontColor=#EEEEEE;rounded=1;" vertex="1" parent="KBO7zZZN5OWcddZGr8ii-11">
          <mxGeometry y="420" width="180" height="30" as="geometry" />
        </mxCell>
        <mxCell id="KBO7zZZN5OWcddZGr8ii-64" style="shape=partialRectangle;connectable=0;fillColor=none;top=0;left=0;bottom=0;right=0;editable=1;overflow=hidden;strokeColor=#BAC8D3;fontColor=#EEEEEE;rounded=1;" vertex="1" parent="KBO7zZZN5OWcddZGr8ii-63">
          <mxGeometry width="30" height="30" as="geometry">
            <mxRectangle width="30" height="30" as="alternateBounds" />
          </mxGeometry>
        </mxCell>
        <mxCell id="KBO7zZZN5OWcddZGr8ii-65" value="charisma" style="shape=partialRectangle;connectable=0;fillColor=none;top=0;left=0;bottom=0;right=0;align=left;spacingLeft=6;overflow=hidden;strokeColor=#BAC8D3;fontColor=#EEEEEE;rounded=1;" vertex="1" parent="KBO7zZZN5OWcddZGr8ii-63">
          <mxGeometry x="30" width="150" height="30" as="geometry">
            <mxRectangle width="150" height="30" as="alternateBounds" />
          </mxGeometry>
        </mxCell>
        <mxCell id="KBO7zZZN5OWcddZGr8ii-75" style="shape=tableRow;horizontal=0;startSize=0;swimlaneHead=0;swimlaneBody=0;fillColor=none;collapsible=0;dropTarget=0;points=[[0,0.5],[1,0.5]];portConstraint=eastwest;top=0;left=0;right=0;bottom=0;strokeColor=#BAC8D3;fontColor=#EEEEEE;rounded=1;" vertex="1" parent="KBO7zZZN5OWcddZGr8ii-11">
          <mxGeometry y="450" width="180" height="30" as="geometry" />
        </mxCell>
        <mxCell id="KBO7zZZN5OWcddZGr8ii-76" style="shape=partialRectangle;connectable=0;fillColor=none;top=0;left=0;bottom=0;right=0;editable=1;overflow=hidden;strokeColor=#BAC8D3;fontColor=#EEEEEE;rounded=1;" vertex="1" parent="KBO7zZZN5OWcddZGr8ii-75">
          <mxGeometry width="30" height="30" as="geometry">
            <mxRectangle width="30" height="30" as="alternateBounds" />
          </mxGeometry>
        </mxCell>
        <mxCell id="KBO7zZZN5OWcddZGr8ii-77" value="total_hp" style="shape=partialRectangle;connectable=0;fillColor=none;top=0;left=0;bottom=0;right=0;align=left;spacingLeft=6;overflow=hidden;strokeColor=#BAC8D3;fontColor=#EEEEEE;rounded=1;" vertex="1" parent="KBO7zZZN5OWcddZGr8ii-75">
          <mxGeometry x="30" width="150" height="30" as="geometry">
            <mxRectangle width="150" height="30" as="alternateBounds" />
          </mxGeometry>
        </mxCell>
        <mxCell id="KBO7zZZN5OWcddZGr8ii-78" style="shape=tableRow;horizontal=0;startSize=0;swimlaneHead=0;swimlaneBody=0;fillColor=none;collapsible=0;dropTarget=0;points=[[0,0.5],[1,0.5]];portConstraint=eastwest;top=0;left=0;right=0;bottom=0;strokeColor=#BAC8D3;fontColor=#EEEEEE;rounded=1;" vertex="1" parent="KBO7zZZN5OWcddZGr8ii-11">
          <mxGeometry y="480" width="180" height="30" as="geometry" />
        </mxCell>
        <mxCell id="KBO7zZZN5OWcddZGr8ii-79" style="shape=partialRectangle;connectable=0;fillColor=none;top=0;left=0;bottom=0;right=0;editable=1;overflow=hidden;strokeColor=#BAC8D3;fontColor=#EEEEEE;rounded=1;" vertex="1" parent="KBO7zZZN5OWcddZGr8ii-78">
          <mxGeometry width="30" height="30" as="geometry">
            <mxRectangle width="30" height="30" as="alternateBounds" />
          </mxGeometry>
        </mxCell>
        <mxCell id="KBO7zZZN5OWcddZGr8ii-80" value="current_hp" style="shape=partialRectangle;connectable=0;fillColor=none;top=0;left=0;bottom=0;right=0;align=left;spacingLeft=6;overflow=hidden;strokeColor=#BAC8D3;fontColor=#EEEEEE;rounded=1;" vertex="1" parent="KBO7zZZN5OWcddZGr8ii-78">
          <mxGeometry x="30" width="150" height="30" as="geometry">
            <mxRectangle width="150" height="30" as="alternateBounds" />
          </mxGeometry>
        </mxCell>
        <mxCell id="KBO7zZZN5OWcddZGr8ii-81" style="shape=tableRow;horizontal=0;startSize=0;swimlaneHead=0;swimlaneBody=0;fillColor=none;collapsible=0;dropTarget=0;points=[[0,0.5],[1,0.5]];portConstraint=eastwest;top=0;left=0;right=0;bottom=0;strokeColor=#BAC8D3;fontColor=#EEEEEE;rounded=1;" vertex="1" parent="KBO7zZZN5OWcddZGr8ii-11">
          <mxGeometry y="510" width="180" height="30" as="geometry" />
        </mxCell>
        <mxCell id="KBO7zZZN5OWcddZGr8ii-82" style="shape=partialRectangle;connectable=0;fillColor=none;top=0;left=0;bottom=0;right=0;editable=1;overflow=hidden;strokeColor=#BAC8D3;fontColor=#EEEEEE;rounded=1;" vertex="1" parent="KBO7zZZN5OWcddZGr8ii-81">
          <mxGeometry width="30" height="30" as="geometry">
            <mxRectangle width="30" height="30" as="alternateBounds" />
          </mxGeometry>
        </mxCell>
        <mxCell id="KBO7zZZN5OWcddZGr8ii-83" value="ac" style="shape=partialRectangle;connectable=0;fillColor=none;top=0;left=0;bottom=0;right=0;align=left;spacingLeft=6;overflow=hidden;strokeColor=#BAC8D3;fontColor=#EEEEEE;rounded=1;" vertex="1" parent="KBO7zZZN5OWcddZGr8ii-81">
          <mxGeometry x="30" width="150" height="30" as="geometry">
            <mxRectangle width="150" height="30" as="alternateBounds" />
          </mxGeometry>
        </mxCell>
        <mxCell id="KBO7zZZN5OWcddZGr8ii-84" style="shape=tableRow;horizontal=0;startSize=0;swimlaneHead=0;swimlaneBody=0;fillColor=none;collapsible=0;dropTarget=0;points=[[0,0.5],[1,0.5]];portConstraint=eastwest;top=0;left=0;right=0;bottom=0;strokeColor=#BAC8D3;fontColor=#EEEEEE;rounded=1;" vertex="1" parent="KBO7zZZN5OWcddZGr8ii-11">
          <mxGeometry y="540" width="180" height="30" as="geometry" />
        </mxCell>
        <mxCell id="KBO7zZZN5OWcddZGr8ii-85" style="shape=partialRectangle;connectable=0;fillColor=none;top=0;left=0;bottom=0;right=0;editable=1;overflow=hidden;strokeColor=#BAC8D3;fontColor=#EEEEEE;rounded=1;" vertex="1" parent="KBO7zZZN5OWcddZGr8ii-84">
          <mxGeometry width="30" height="30" as="geometry">
            <mxRectangle width="30" height="30" as="alternateBounds" />
          </mxGeometry>
        </mxCell>
        <mxCell id="KBO7zZZN5OWcddZGr8ii-86" value="initiative" style="shape=partialRectangle;connectable=0;fillColor=none;top=0;left=0;bottom=0;right=0;align=left;spacingLeft=6;overflow=hidden;strokeColor=#BAC8D3;fontColor=#EEEEEE;rounded=1;" vertex="1" parent="KBO7zZZN5OWcddZGr8ii-84">
          <mxGeometry x="30" width="150" height="30" as="geometry">
            <mxRectangle width="150" height="30" as="alternateBounds" />
          </mxGeometry>
        </mxCell>
        <mxCell id="KBO7zZZN5OWcddZGr8ii-87" style="shape=tableRow;horizontal=0;startSize=0;swimlaneHead=0;swimlaneBody=0;fillColor=none;collapsible=0;dropTarget=0;points=[[0,0.5],[1,0.5]];portConstraint=eastwest;top=0;left=0;right=0;bottom=0;strokeColor=#BAC8D3;fontColor=#EEEEEE;rounded=1;" vertex="1" parent="KBO7zZZN5OWcddZGr8ii-11">
          <mxGeometry y="570" width="180" height="30" as="geometry" />
        </mxCell>
        <mxCell id="KBO7zZZN5OWcddZGr8ii-88" style="shape=partialRectangle;connectable=0;fillColor=none;top=0;left=0;bottom=0;right=0;editable=1;overflow=hidden;strokeColor=#BAC8D3;fontColor=#EEEEEE;rounded=1;" vertex="1" parent="KBO7zZZN5OWcddZGr8ii-87">
          <mxGeometry width="30" height="30" as="geometry">
            <mxRectangle width="30" height="30" as="alternateBounds" />
          </mxGeometry>
        </mxCell>
        <mxCell id="KBO7zZZN5OWcddZGr8ii-89" value="speed" style="shape=partialRectangle;connectable=0;fillColor=none;top=0;left=0;bottom=0;right=0;align=left;spacingLeft=6;overflow=hidden;strokeColor=#BAC8D3;fontColor=#EEEEEE;rounded=1;" vertex="1" parent="KBO7zZZN5OWcddZGr8ii-87">
          <mxGeometry x="30" width="150" height="30" as="geometry">
            <mxRectangle width="150" height="30" as="alternateBounds" />
          </mxGeometry>
        </mxCell>
        <mxCell id="KBO7zZZN5OWcddZGr8ii-96" style="shape=tableRow;horizontal=0;startSize=0;swimlaneHead=0;swimlaneBody=0;fillColor=none;collapsible=0;dropTarget=0;points=[[0,0.5],[1,0.5]];portConstraint=eastwest;top=0;left=0;right=0;bottom=0;strokeColor=#BAC8D3;fontColor=#EEEEEE;rounded=1;" vertex="1" parent="KBO7zZZN5OWcddZGr8ii-11">
          <mxGeometry y="600" width="180" height="30" as="geometry" />
        </mxCell>
        <mxCell id="KBO7zZZN5OWcddZGr8ii-97" value="" style="shape=partialRectangle;connectable=0;fillColor=none;top=0;left=0;bottom=0;right=0;editable=1;overflow=hidden;strokeColor=#BAC8D3;fontColor=#EEEEEE;rounded=1;" vertex="1" parent="KBO7zZZN5OWcddZGr8ii-96">
          <mxGeometry width="30" height="30" as="geometry">
            <mxRectangle width="30" height="30" as="alternateBounds" />
          </mxGeometry>
        </mxCell>
        <mxCell id="KBO7zZZN5OWcddZGr8ii-98" value="passive_wisdom" style="shape=partialRectangle;connectable=0;fillColor=none;top=0;left=0;bottom=0;right=0;align=left;spacingLeft=6;overflow=hidden;strokeColor=#BAC8D3;fontColor=#EEEEEE;rounded=1;" vertex="1" parent="KBO7zZZN5OWcddZGr8ii-96">
          <mxGeometry x="30" width="150" height="30" as="geometry">
            <mxRectangle width="150" height="30" as="alternateBounds" />
          </mxGeometry>
        </mxCell>
        <mxCell id="KBO7zZZN5OWcddZGr8ii-179" style="shape=tableRow;horizontal=0;startSize=0;swimlaneHead=0;swimlaneBody=0;fillColor=none;collapsible=0;dropTarget=0;points=[[0,0.5],[1,0.5]];portConstraint=eastwest;top=0;left=0;right=0;bottom=0;strokeColor=#BAC8D3;fontColor=#EEEEEE;rounded=1;" vertex="1" parent="KBO7zZZN5OWcddZGr8ii-11">
          <mxGeometry y="630" width="180" height="30" as="geometry" />
        </mxCell>
        <mxCell id="KBO7zZZN5OWcddZGr8ii-180" style="shape=partialRectangle;connectable=0;fillColor=none;top=0;left=0;bottom=0;right=0;editable=1;overflow=hidden;strokeColor=#BAC8D3;fontColor=#EEEEEE;rounded=1;" vertex="1" parent="KBO7zZZN5OWcddZGr8ii-179">
          <mxGeometry width="30" height="30" as="geometry">
            <mxRectangle width="30" height="30" as="alternateBounds" />
          </mxGeometry>
        </mxCell>
        <mxCell id="KBO7zZZN5OWcddZGr8ii-181" value="acrobatics" style="shape=partialRectangle;connectable=0;fillColor=none;top=0;left=0;bottom=0;right=0;align=left;spacingLeft=6;overflow=hidden;strokeColor=#BAC8D3;fontColor=#EEEEEE;rounded=1;" vertex="1" parent="KBO7zZZN5OWcddZGr8ii-179">
          <mxGeometry x="30" width="150" height="30" as="geometry">
            <mxRectangle width="150" height="30" as="alternateBounds" />
          </mxGeometry>
        </mxCell>
        <mxCell id="KBO7zZZN5OWcddZGr8ii-182" style="shape=tableRow;horizontal=0;startSize=0;swimlaneHead=0;swimlaneBody=0;fillColor=none;collapsible=0;dropTarget=0;points=[[0,0.5],[1,0.5]];portConstraint=eastwest;top=0;left=0;right=0;bottom=0;strokeColor=#BAC8D3;fontColor=#EEEEEE;rounded=1;" vertex="1" parent="KBO7zZZN5OWcddZGr8ii-11">
          <mxGeometry y="660" width="180" height="30" as="geometry" />
        </mxCell>
        <mxCell id="KBO7zZZN5OWcddZGr8ii-183" style="shape=partialRectangle;connectable=0;fillColor=none;top=0;left=0;bottom=0;right=0;editable=1;overflow=hidden;strokeColor=#BAC8D3;fontColor=#EEEEEE;rounded=1;" vertex="1" parent="KBO7zZZN5OWcddZGr8ii-182">
          <mxGeometry width="30" height="30" as="geometry">
            <mxRectangle width="30" height="30" as="alternateBounds" />
          </mxGeometry>
        </mxCell>
        <mxCell id="KBO7zZZN5OWcddZGr8ii-184" value="animal_handling" style="shape=partialRectangle;connectable=0;fillColor=none;top=0;left=0;bottom=0;right=0;align=left;spacingLeft=6;overflow=hidden;strokeColor=#BAC8D3;fontColor=#EEEEEE;rounded=1;" vertex="1" parent="KBO7zZZN5OWcddZGr8ii-182">
          <mxGeometry x="30" width="150" height="30" as="geometry">
            <mxRectangle width="150" height="30" as="alternateBounds" />
          </mxGeometry>
        </mxCell>
        <mxCell id="KBO7zZZN5OWcddZGr8ii-185" style="shape=tableRow;horizontal=0;startSize=0;swimlaneHead=0;swimlaneBody=0;fillColor=none;collapsible=0;dropTarget=0;points=[[0,0.5],[1,0.5]];portConstraint=eastwest;top=0;left=0;right=0;bottom=0;strokeColor=#BAC8D3;fontColor=#EEEEEE;rounded=1;" vertex="1" parent="KBO7zZZN5OWcddZGr8ii-11">
          <mxGeometry y="690" width="180" height="30" as="geometry" />
        </mxCell>
        <mxCell id="KBO7zZZN5OWcddZGr8ii-186" style="shape=partialRectangle;connectable=0;fillColor=none;top=0;left=0;bottom=0;right=0;editable=1;overflow=hidden;strokeColor=#BAC8D3;fontColor=#EEEEEE;rounded=1;" vertex="1" parent="KBO7zZZN5OWcddZGr8ii-185">
          <mxGeometry width="30" height="30" as="geometry">
            <mxRectangle width="30" height="30" as="alternateBounds" />
          </mxGeometry>
        </mxCell>
        <mxCell id="KBO7zZZN5OWcddZGr8ii-187" value="arcana" style="shape=partialRectangle;connectable=0;fillColor=none;top=0;left=0;bottom=0;right=0;align=left;spacingLeft=6;overflow=hidden;strokeColor=#BAC8D3;fontColor=#EEEEEE;rounded=1;" vertex="1" parent="KBO7zZZN5OWcddZGr8ii-185">
          <mxGeometry x="30" width="150" height="30" as="geometry">
            <mxRectangle width="150" height="30" as="alternateBounds" />
          </mxGeometry>
        </mxCell>
        <mxCell id="KBO7zZZN5OWcddZGr8ii-188" style="shape=tableRow;horizontal=0;startSize=0;swimlaneHead=0;swimlaneBody=0;fillColor=none;collapsible=0;dropTarget=0;points=[[0,0.5],[1,0.5]];portConstraint=eastwest;top=0;left=0;right=0;bottom=0;strokeColor=#BAC8D3;fontColor=#EEEEEE;rounded=1;" vertex="1" parent="KBO7zZZN5OWcddZGr8ii-11">
          <mxGeometry y="720" width="180" height="30" as="geometry" />
        </mxCell>
        <mxCell id="KBO7zZZN5OWcddZGr8ii-189" style="shape=partialRectangle;connectable=0;fillColor=none;top=0;left=0;bottom=0;right=0;editable=1;overflow=hidden;strokeColor=#BAC8D3;fontColor=#EEEEEE;rounded=1;" vertex="1" parent="KBO7zZZN5OWcddZGr8ii-188">
          <mxGeometry width="30" height="30" as="geometry">
            <mxRectangle width="30" height="30" as="alternateBounds" />
          </mxGeometry>
        </mxCell>
        <mxCell id="KBO7zZZN5OWcddZGr8ii-190" value="athletics" style="shape=partialRectangle;connectable=0;fillColor=none;top=0;left=0;bottom=0;right=0;align=left;spacingLeft=6;overflow=hidden;strokeColor=#BAC8D3;fontColor=#EEEEEE;rounded=1;" vertex="1" parent="KBO7zZZN5OWcddZGr8ii-188">
          <mxGeometry x="30" width="150" height="30" as="geometry">
            <mxRectangle width="150" height="30" as="alternateBounds" />
          </mxGeometry>
        </mxCell>
        <mxCell id="KBO7zZZN5OWcddZGr8ii-191" style="shape=tableRow;horizontal=0;startSize=0;swimlaneHead=0;swimlaneBody=0;fillColor=none;collapsible=0;dropTarget=0;points=[[0,0.5],[1,0.5]];portConstraint=eastwest;top=0;left=0;right=0;bottom=0;strokeColor=#BAC8D3;fontColor=#EEEEEE;rounded=1;" vertex="1" parent="KBO7zZZN5OWcddZGr8ii-11">
          <mxGeometry y="750" width="180" height="30" as="geometry" />
        </mxCell>
        <mxCell id="KBO7zZZN5OWcddZGr8ii-192" style="shape=partialRectangle;connectable=0;fillColor=none;top=0;left=0;bottom=0;right=0;editable=1;overflow=hidden;strokeColor=#BAC8D3;fontColor=#EEEEEE;rounded=1;" vertex="1" parent="KBO7zZZN5OWcddZGr8ii-191">
          <mxGeometry width="30" height="30" as="geometry">
            <mxRectangle width="30" height="30" as="alternateBounds" />
          </mxGeometry>
        </mxCell>
        <mxCell id="KBO7zZZN5OWcddZGr8ii-193" value="deception" style="shape=partialRectangle;connectable=0;fillColor=none;top=0;left=0;bottom=0;right=0;align=left;spacingLeft=6;overflow=hidden;strokeColor=#BAC8D3;fontColor=#EEEEEE;rounded=1;" vertex="1" parent="KBO7zZZN5OWcddZGr8ii-191">
          <mxGeometry x="30" width="150" height="30" as="geometry">
            <mxRectangle width="150" height="30" as="alternateBounds" />
          </mxGeometry>
        </mxCell>
        <mxCell id="KBO7zZZN5OWcddZGr8ii-194" style="shape=tableRow;horizontal=0;startSize=0;swimlaneHead=0;swimlaneBody=0;fillColor=none;collapsible=0;dropTarget=0;points=[[0,0.5],[1,0.5]];portConstraint=eastwest;top=0;left=0;right=0;bottom=0;strokeColor=#BAC8D3;fontColor=#EEEEEE;rounded=1;" vertex="1" parent="KBO7zZZN5OWcddZGr8ii-11">
          <mxGeometry y="780" width="180" height="30" as="geometry" />
        </mxCell>
        <mxCell id="KBO7zZZN5OWcddZGr8ii-195" style="shape=partialRectangle;connectable=0;fillColor=none;top=0;left=0;bottom=0;right=0;editable=1;overflow=hidden;strokeColor=#BAC8D3;fontColor=#EEEEEE;rounded=1;" vertex="1" parent="KBO7zZZN5OWcddZGr8ii-194">
          <mxGeometry width="30" height="30" as="geometry">
            <mxRectangle width="30" height="30" as="alternateBounds" />
          </mxGeometry>
        </mxCell>
        <mxCell id="KBO7zZZN5OWcddZGr8ii-196" value="history" style="shape=partialRectangle;connectable=0;fillColor=none;top=0;left=0;bottom=0;right=0;align=left;spacingLeft=6;overflow=hidden;strokeColor=#BAC8D3;fontColor=#EEEEEE;rounded=1;" vertex="1" parent="KBO7zZZN5OWcddZGr8ii-194">
          <mxGeometry x="30" width="150" height="30" as="geometry">
            <mxRectangle width="150" height="30" as="alternateBounds" />
          </mxGeometry>
        </mxCell>
        <mxCell id="KBO7zZZN5OWcddZGr8ii-197" style="shape=tableRow;horizontal=0;startSize=0;swimlaneHead=0;swimlaneBody=0;fillColor=none;collapsible=0;dropTarget=0;points=[[0,0.5],[1,0.5]];portConstraint=eastwest;top=0;left=0;right=0;bottom=0;strokeColor=#BAC8D3;fontColor=#EEEEEE;rounded=1;" vertex="1" parent="KBO7zZZN5OWcddZGr8ii-11">
          <mxGeometry y="810" width="180" height="30" as="geometry" />
        </mxCell>
        <mxCell id="KBO7zZZN5OWcddZGr8ii-198" style="shape=partialRectangle;connectable=0;fillColor=none;top=0;left=0;bottom=0;right=0;editable=1;overflow=hidden;strokeColor=#BAC8D3;fontColor=#EEEEEE;rounded=1;" vertex="1" parent="KBO7zZZN5OWcddZGr8ii-197">
          <mxGeometry width="30" height="30" as="geometry">
            <mxRectangle width="30" height="30" as="alternateBounds" />
          </mxGeometry>
        </mxCell>
        <mxCell id="KBO7zZZN5OWcddZGr8ii-199" value="insight" style="shape=partialRectangle;connectable=0;fillColor=none;top=0;left=0;bottom=0;right=0;align=left;spacingLeft=6;overflow=hidden;strokeColor=#BAC8D3;fontColor=#EEEEEE;rounded=1;" vertex="1" parent="KBO7zZZN5OWcddZGr8ii-197">
          <mxGeometry x="30" width="150" height="30" as="geometry">
            <mxRectangle width="150" height="30" as="alternateBounds" />
          </mxGeometry>
        </mxCell>
        <mxCell id="KBO7zZZN5OWcddZGr8ii-200" style="shape=tableRow;horizontal=0;startSize=0;swimlaneHead=0;swimlaneBody=0;fillColor=none;collapsible=0;dropTarget=0;points=[[0,0.5],[1,0.5]];portConstraint=eastwest;top=0;left=0;right=0;bottom=0;strokeColor=#BAC8D3;fontColor=#EEEEEE;rounded=1;" vertex="1" parent="KBO7zZZN5OWcddZGr8ii-11">
          <mxGeometry y="840" width="180" height="30" as="geometry" />
        </mxCell>
        <mxCell id="KBO7zZZN5OWcddZGr8ii-201" style="shape=partialRectangle;connectable=0;fillColor=none;top=0;left=0;bottom=0;right=0;editable=1;overflow=hidden;strokeColor=#BAC8D3;fontColor=#EEEEEE;rounded=1;" vertex="1" parent="KBO7zZZN5OWcddZGr8ii-200">
          <mxGeometry width="30" height="30" as="geometry">
            <mxRectangle width="30" height="30" as="alternateBounds" />
          </mxGeometry>
        </mxCell>
        <mxCell id="KBO7zZZN5OWcddZGr8ii-202" value="intimidation" style="shape=partialRectangle;connectable=0;fillColor=none;top=0;left=0;bottom=0;right=0;align=left;spacingLeft=6;overflow=hidden;strokeColor=#BAC8D3;fontColor=#EEEEEE;rounded=1;" vertex="1" parent="KBO7zZZN5OWcddZGr8ii-200">
          <mxGeometry x="30" width="150" height="30" as="geometry">
            <mxRectangle width="150" height="30" as="alternateBounds" />
          </mxGeometry>
        </mxCell>
        <mxCell id="KBO7zZZN5OWcddZGr8ii-203" style="shape=tableRow;horizontal=0;startSize=0;swimlaneHead=0;swimlaneBody=0;fillColor=none;collapsible=0;dropTarget=0;points=[[0,0.5],[1,0.5]];portConstraint=eastwest;top=0;left=0;right=0;bottom=0;strokeColor=#BAC8D3;fontColor=#EEEEEE;rounded=1;" vertex="1" parent="KBO7zZZN5OWcddZGr8ii-11">
          <mxGeometry y="870" width="180" height="30" as="geometry" />
        </mxCell>
        <mxCell id="KBO7zZZN5OWcddZGr8ii-204" style="shape=partialRectangle;connectable=0;fillColor=none;top=0;left=0;bottom=0;right=0;editable=1;overflow=hidden;strokeColor=#BAC8D3;fontColor=#EEEEEE;rounded=1;" vertex="1" parent="KBO7zZZN5OWcddZGr8ii-203">
          <mxGeometry width="30" height="30" as="geometry">
            <mxRectangle width="30" height="30" as="alternateBounds" />
          </mxGeometry>
        </mxCell>
        <mxCell id="KBO7zZZN5OWcddZGr8ii-205" value="investigation" style="shape=partialRectangle;connectable=0;fillColor=none;top=0;left=0;bottom=0;right=0;align=left;spacingLeft=6;overflow=hidden;strokeColor=#BAC8D3;fontColor=#EEEEEE;rounded=1;" vertex="1" parent="KBO7zZZN5OWcddZGr8ii-203">
          <mxGeometry x="30" width="150" height="30" as="geometry">
            <mxRectangle width="150" height="30" as="alternateBounds" />
          </mxGeometry>
        </mxCell>
        <mxCell id="KBO7zZZN5OWcddZGr8ii-206" style="shape=tableRow;horizontal=0;startSize=0;swimlaneHead=0;swimlaneBody=0;fillColor=none;collapsible=0;dropTarget=0;points=[[0,0.5],[1,0.5]];portConstraint=eastwest;top=0;left=0;right=0;bottom=0;strokeColor=#BAC8D3;fontColor=#EEEEEE;rounded=1;" vertex="1" parent="KBO7zZZN5OWcddZGr8ii-11">
          <mxGeometry y="900" width="180" height="30" as="geometry" />
        </mxCell>
        <mxCell id="KBO7zZZN5OWcddZGr8ii-207" style="shape=partialRectangle;connectable=0;fillColor=none;top=0;left=0;bottom=0;right=0;editable=1;overflow=hidden;strokeColor=#BAC8D3;fontColor=#EEEEEE;rounded=1;" vertex="1" parent="KBO7zZZN5OWcddZGr8ii-206">
          <mxGeometry width="30" height="30" as="geometry">
            <mxRectangle width="30" height="30" as="alternateBounds" />
          </mxGeometry>
        </mxCell>
        <mxCell id="KBO7zZZN5OWcddZGr8ii-208" value="medicine" style="shape=partialRectangle;connectable=0;fillColor=none;top=0;left=0;bottom=0;right=0;align=left;spacingLeft=6;overflow=hidden;strokeColor=#BAC8D3;fontColor=#EEEEEE;rounded=1;" vertex="1" parent="KBO7zZZN5OWcddZGr8ii-206">
          <mxGeometry x="30" width="150" height="30" as="geometry">
            <mxRectangle width="150" height="30" as="alternateBounds" />
          </mxGeometry>
        </mxCell>
        <mxCell id="KBO7zZZN5OWcddZGr8ii-209" style="shape=tableRow;horizontal=0;startSize=0;swimlaneHead=0;swimlaneBody=0;fillColor=none;collapsible=0;dropTarget=0;points=[[0,0.5],[1,0.5]];portConstraint=eastwest;top=0;left=0;right=0;bottom=0;strokeColor=#BAC8D3;fontColor=#EEEEEE;rounded=1;" vertex="1" parent="KBO7zZZN5OWcddZGr8ii-11">
          <mxGeometry y="930" width="180" height="30" as="geometry" />
        </mxCell>
        <mxCell id="KBO7zZZN5OWcddZGr8ii-210" style="shape=partialRectangle;connectable=0;fillColor=none;top=0;left=0;bottom=0;right=0;editable=1;overflow=hidden;strokeColor=#BAC8D3;fontColor=#EEEEEE;rounded=1;" vertex="1" parent="KBO7zZZN5OWcddZGr8ii-209">
          <mxGeometry width="30" height="30" as="geometry">
            <mxRectangle width="30" height="30" as="alternateBounds" />
          </mxGeometry>
        </mxCell>
        <mxCell id="KBO7zZZN5OWcddZGr8ii-211" value="nature" style="shape=partialRectangle;connectable=0;fillColor=none;top=0;left=0;bottom=0;right=0;align=left;spacingLeft=6;overflow=hidden;strokeColor=#BAC8D3;fontColor=#EEEEEE;rounded=1;" vertex="1" parent="KBO7zZZN5OWcddZGr8ii-209">
          <mxGeometry x="30" width="150" height="30" as="geometry">
            <mxRectangle width="150" height="30" as="alternateBounds" />
          </mxGeometry>
        </mxCell>
        <mxCell id="KBO7zZZN5OWcddZGr8ii-212" style="shape=tableRow;horizontal=0;startSize=0;swimlaneHead=0;swimlaneBody=0;fillColor=none;collapsible=0;dropTarget=0;points=[[0,0.5],[1,0.5]];portConstraint=eastwest;top=0;left=0;right=0;bottom=0;strokeColor=#BAC8D3;fontColor=#EEEEEE;rounded=1;" vertex="1" parent="KBO7zZZN5OWcddZGr8ii-11">
          <mxGeometry y="960" width="180" height="30" as="geometry" />
        </mxCell>
        <mxCell id="KBO7zZZN5OWcddZGr8ii-213" style="shape=partialRectangle;connectable=0;fillColor=none;top=0;left=0;bottom=0;right=0;editable=1;overflow=hidden;strokeColor=#BAC8D3;fontColor=#EEEEEE;rounded=1;" vertex="1" parent="KBO7zZZN5OWcddZGr8ii-212">
          <mxGeometry width="30" height="30" as="geometry">
            <mxRectangle width="30" height="30" as="alternateBounds" />
          </mxGeometry>
        </mxCell>
        <mxCell id="KBO7zZZN5OWcddZGr8ii-214" value="perception" style="shape=partialRectangle;connectable=0;fillColor=none;top=0;left=0;bottom=0;right=0;align=left;spacingLeft=6;overflow=hidden;strokeColor=#BAC8D3;fontColor=#EEEEEE;rounded=1;" vertex="1" parent="KBO7zZZN5OWcddZGr8ii-212">
          <mxGeometry x="30" width="150" height="30" as="geometry">
            <mxRectangle width="150" height="30" as="alternateBounds" />
          </mxGeometry>
        </mxCell>
        <mxCell id="KBO7zZZN5OWcddZGr8ii-215" style="shape=tableRow;horizontal=0;startSize=0;swimlaneHead=0;swimlaneBody=0;fillColor=none;collapsible=0;dropTarget=0;points=[[0,0.5],[1,0.5]];portConstraint=eastwest;top=0;left=0;right=0;bottom=0;strokeColor=#BAC8D3;fontColor=#EEEEEE;rounded=1;" vertex="1" parent="KBO7zZZN5OWcddZGr8ii-11">
          <mxGeometry y="990" width="180" height="30" as="geometry" />
        </mxCell>
        <mxCell id="KBO7zZZN5OWcddZGr8ii-216" style="shape=partialRectangle;connectable=0;fillColor=none;top=0;left=0;bottom=0;right=0;editable=1;overflow=hidden;strokeColor=#BAC8D3;fontColor=#EEEEEE;rounded=1;" vertex="1" parent="KBO7zZZN5OWcddZGr8ii-215">
          <mxGeometry width="30" height="30" as="geometry">
            <mxRectangle width="30" height="30" as="alternateBounds" />
          </mxGeometry>
        </mxCell>
        <mxCell id="KBO7zZZN5OWcddZGr8ii-217" value="performance" style="shape=partialRectangle;connectable=0;fillColor=none;top=0;left=0;bottom=0;right=0;align=left;spacingLeft=6;overflow=hidden;strokeColor=#BAC8D3;fontColor=#EEEEEE;rounded=1;" vertex="1" parent="KBO7zZZN5OWcddZGr8ii-215">
          <mxGeometry x="30" width="150" height="30" as="geometry">
            <mxRectangle width="150" height="30" as="alternateBounds" />
          </mxGeometry>
        </mxCell>
        <mxCell id="KBO7zZZN5OWcddZGr8ii-218" style="shape=tableRow;horizontal=0;startSize=0;swimlaneHead=0;swimlaneBody=0;fillColor=none;collapsible=0;dropTarget=0;points=[[0,0.5],[1,0.5]];portConstraint=eastwest;top=0;left=0;right=0;bottom=0;strokeColor=#BAC8D3;fontColor=#EEEEEE;rounded=1;" vertex="1" parent="KBO7zZZN5OWcddZGr8ii-11">
          <mxGeometry y="1020" width="180" height="30" as="geometry" />
        </mxCell>
        <mxCell id="KBO7zZZN5OWcddZGr8ii-219" style="shape=partialRectangle;connectable=0;fillColor=none;top=0;left=0;bottom=0;right=0;editable=1;overflow=hidden;strokeColor=#BAC8D3;fontColor=#EEEEEE;rounded=1;" vertex="1" parent="KBO7zZZN5OWcddZGr8ii-218">
          <mxGeometry width="30" height="30" as="geometry">
            <mxRectangle width="30" height="30" as="alternateBounds" />
          </mxGeometry>
        </mxCell>
        <mxCell id="KBO7zZZN5OWcddZGr8ii-220" value="persuasion" style="shape=partialRectangle;connectable=0;fillColor=none;top=0;left=0;bottom=0;right=0;align=left;spacingLeft=6;overflow=hidden;strokeColor=#BAC8D3;fontColor=#EEEEEE;rounded=1;" vertex="1" parent="KBO7zZZN5OWcddZGr8ii-218">
          <mxGeometry x="30" width="150" height="30" as="geometry">
            <mxRectangle width="150" height="30" as="alternateBounds" />
          </mxGeometry>
        </mxCell>
        <mxCell id="KBO7zZZN5OWcddZGr8ii-221" style="shape=tableRow;horizontal=0;startSize=0;swimlaneHead=0;swimlaneBody=0;fillColor=none;collapsible=0;dropTarget=0;points=[[0,0.5],[1,0.5]];portConstraint=eastwest;top=0;left=0;right=0;bottom=0;strokeColor=#BAC8D3;fontColor=#EEEEEE;rounded=1;" vertex="1" parent="KBO7zZZN5OWcddZGr8ii-11">
          <mxGeometry y="1050" width="180" height="30" as="geometry" />
        </mxCell>
        <mxCell id="KBO7zZZN5OWcddZGr8ii-222" style="shape=partialRectangle;connectable=0;fillColor=none;top=0;left=0;bottom=0;right=0;editable=1;overflow=hidden;strokeColor=#BAC8D3;fontColor=#EEEEEE;rounded=1;" vertex="1" parent="KBO7zZZN5OWcddZGr8ii-221">
          <mxGeometry width="30" height="30" as="geometry">
            <mxRectangle width="30" height="30" as="alternateBounds" />
          </mxGeometry>
        </mxCell>
        <mxCell id="KBO7zZZN5OWcddZGr8ii-223" value="religion" style="shape=partialRectangle;connectable=0;fillColor=none;top=0;left=0;bottom=0;right=0;align=left;spacingLeft=6;overflow=hidden;strokeColor=#BAC8D3;fontColor=#EEEEEE;rounded=1;" vertex="1" parent="KBO7zZZN5OWcddZGr8ii-221">
          <mxGeometry x="30" width="150" height="30" as="geometry">
            <mxRectangle width="150" height="30" as="alternateBounds" />
          </mxGeometry>
        </mxCell>
        <mxCell id="KBO7zZZN5OWcddZGr8ii-224" style="shape=tableRow;horizontal=0;startSize=0;swimlaneHead=0;swimlaneBody=0;fillColor=none;collapsible=0;dropTarget=0;points=[[0,0.5],[1,0.5]];portConstraint=eastwest;top=0;left=0;right=0;bottom=0;strokeColor=#BAC8D3;fontColor=#EEEEEE;rounded=1;" vertex="1" parent="KBO7zZZN5OWcddZGr8ii-11">
          <mxGeometry y="1080" width="180" height="30" as="geometry" />
        </mxCell>
        <mxCell id="KBO7zZZN5OWcddZGr8ii-225" style="shape=partialRectangle;connectable=0;fillColor=none;top=0;left=0;bottom=0;right=0;editable=1;overflow=hidden;strokeColor=#BAC8D3;fontColor=#EEEEEE;rounded=1;" vertex="1" parent="KBO7zZZN5OWcddZGr8ii-224">
          <mxGeometry width="30" height="30" as="geometry">
            <mxRectangle width="30" height="30" as="alternateBounds" />
          </mxGeometry>
        </mxCell>
        <mxCell id="KBO7zZZN5OWcddZGr8ii-226" value="sleight_of_hand" style="shape=partialRectangle;connectable=0;fillColor=none;top=0;left=0;bottom=0;right=0;align=left;spacingLeft=6;overflow=hidden;strokeColor=#BAC8D3;fontColor=#EEEEEE;rounded=1;" vertex="1" parent="KBO7zZZN5OWcddZGr8ii-224">
          <mxGeometry x="30" width="150" height="30" as="geometry">
            <mxRectangle width="150" height="30" as="alternateBounds" />
          </mxGeometry>
        </mxCell>
        <mxCell id="KBO7zZZN5OWcddZGr8ii-227" style="shape=tableRow;horizontal=0;startSize=0;swimlaneHead=0;swimlaneBody=0;fillColor=none;collapsible=0;dropTarget=0;points=[[0,0.5],[1,0.5]];portConstraint=eastwest;top=0;left=0;right=0;bottom=0;strokeColor=#BAC8D3;fontColor=#EEEEEE;rounded=1;" vertex="1" parent="KBO7zZZN5OWcddZGr8ii-11">
          <mxGeometry y="1110" width="180" height="30" as="geometry" />
        </mxCell>
        <mxCell id="KBO7zZZN5OWcddZGr8ii-228" style="shape=partialRectangle;connectable=0;fillColor=none;top=0;left=0;bottom=0;right=0;editable=1;overflow=hidden;strokeColor=#BAC8D3;fontColor=#EEEEEE;rounded=1;" vertex="1" parent="KBO7zZZN5OWcddZGr8ii-227">
          <mxGeometry width="30" height="30" as="geometry">
            <mxRectangle width="30" height="30" as="alternateBounds" />
          </mxGeometry>
        </mxCell>
        <mxCell id="KBO7zZZN5OWcddZGr8ii-229" value="stealth" style="shape=partialRectangle;connectable=0;fillColor=none;top=0;left=0;bottom=0;right=0;align=left;spacingLeft=6;overflow=hidden;strokeColor=#BAC8D3;fontColor=#EEEEEE;rounded=1;" vertex="1" parent="KBO7zZZN5OWcddZGr8ii-227">
          <mxGeometry x="30" width="150" height="30" as="geometry">
            <mxRectangle width="150" height="30" as="alternateBounds" />
          </mxGeometry>
        </mxCell>
        <mxCell id="KBO7zZZN5OWcddZGr8ii-230" style="shape=tableRow;horizontal=0;startSize=0;swimlaneHead=0;swimlaneBody=0;fillColor=none;collapsible=0;dropTarget=0;points=[[0,0.5],[1,0.5]];portConstraint=eastwest;top=0;left=0;right=0;bottom=0;strokeColor=#BAC8D3;fontColor=#EEEEEE;rounded=1;" vertex="1" parent="KBO7zZZN5OWcddZGr8ii-11">
          <mxGeometry y="1140" width="180" height="30" as="geometry" />
        </mxCell>
        <mxCell id="KBO7zZZN5OWcddZGr8ii-231" style="shape=partialRectangle;connectable=0;fillColor=none;top=0;left=0;bottom=0;right=0;editable=1;overflow=hidden;strokeColor=#BAC8D3;fontColor=#EEEEEE;rounded=1;" vertex="1" parent="KBO7zZZN5OWcddZGr8ii-230">
          <mxGeometry width="30" height="30" as="geometry">
            <mxRectangle width="30" height="30" as="alternateBounds" />
          </mxGeometry>
        </mxCell>
        <mxCell id="KBO7zZZN5OWcddZGr8ii-232" value="survival" style="shape=partialRectangle;connectable=0;fillColor=none;top=0;left=0;bottom=0;right=0;align=left;spacingLeft=6;overflow=hidden;strokeColor=#BAC8D3;fontColor=#EEEEEE;rounded=1;" vertex="1" parent="KBO7zZZN5OWcddZGr8ii-230">
          <mxGeometry x="30" width="150" height="30" as="geometry">
            <mxRectangle width="150" height="30" as="alternateBounds" />
          </mxGeometry>
        </mxCell>
        <mxCell id="KBO7zZZN5OWcddZGr8ii-31" value="" style="edgeStyle=entityRelationEdgeStyle;fontSize=12;html=1;endArrow=ERzeroToMany;startArrow=ERmandOne;rounded=1;strokeColor=#0B4D6A;exitX=1;exitY=0.5;exitDx=0;exitDy=0;entryX=0;entryY=0.5;entryDx=0;entryDy=0;" edge="1" parent="1" source="KBO7zZZN5OWcddZGr8ii-2" target="KBO7zZZN5OWcddZGr8ii-15">
          <mxGeometry width="100" height="100" relative="1" as="geometry">
            <mxPoint x="555" y="376" as="sourcePoint" />
            <mxPoint x="655" y="276" as="targetPoint" />
          </mxGeometry>
        </mxCell>
        <mxCell id="KBO7zZZN5OWcddZGr8ii-99" value="hit_dice" style="shape=table;startSize=30;container=1;collapsible=1;childLayout=tableLayout;fixedRows=1;rowLines=0;fontStyle=1;align=center;resizeLast=1;fillColor=#09555B;strokeColor=#BAC8D3;fontColor=#EEEEEE;rounded=1;" vertex="1" parent="1">
          <mxGeometry x="647" y="73" width="180" height="130" as="geometry" />
        </mxCell>
        <mxCell id="KBO7zZZN5OWcddZGr8ii-100" value="" style="shape=tableRow;horizontal=0;startSize=0;swimlaneHead=0;swimlaneBody=0;fillColor=none;collapsible=0;dropTarget=0;points=[[0,0.5],[1,0.5]];portConstraint=eastwest;top=0;left=0;right=0;bottom=1;strokeColor=#BAC8D3;fontColor=#EEEEEE;rounded=1;" vertex="1" parent="KBO7zZZN5OWcddZGr8ii-99">
          <mxGeometry y="30" width="180" height="30" as="geometry" />
        </mxCell>
        <mxCell id="KBO7zZZN5OWcddZGr8ii-101" value="PK" style="shape=partialRectangle;connectable=0;fillColor=none;top=0;left=0;bottom=0;right=0;fontStyle=1;overflow=hidden;strokeColor=#BAC8D3;fontColor=#EEEEEE;rounded=1;" vertex="1" parent="KBO7zZZN5OWcddZGr8ii-100">
          <mxGeometry width="30" height="30" as="geometry">
            <mxRectangle width="30" height="30" as="alternateBounds" />
          </mxGeometry>
        </mxCell>
        <mxCell id="KBO7zZZN5OWcddZGr8ii-102" value="id" style="shape=partialRectangle;connectable=0;fillColor=none;top=0;left=0;bottom=0;right=0;align=left;spacingLeft=6;fontStyle=5;overflow=hidden;strokeColor=#BAC8D3;fontColor=#EEEEEE;rounded=1;" vertex="1" parent="KBO7zZZN5OWcddZGr8ii-100">
          <mxGeometry x="30" width="150" height="30" as="geometry">
            <mxRectangle width="150" height="30" as="alternateBounds" />
          </mxGeometry>
        </mxCell>
        <mxCell id="KBO7zZZN5OWcddZGr8ii-103" value="" style="shape=tableRow;horizontal=0;startSize=0;swimlaneHead=0;swimlaneBody=0;fillColor=none;collapsible=0;dropTarget=0;points=[[0,0.5],[1,0.5]];portConstraint=eastwest;top=0;left=0;right=0;bottom=0;strokeColor=#BAC8D3;fontColor=#EEEEEE;rounded=1;" vertex="1" parent="KBO7zZZN5OWcddZGr8ii-99">
          <mxGeometry y="60" width="180" height="30" as="geometry" />
        </mxCell>
        <mxCell id="KBO7zZZN5OWcddZGr8ii-104" value="FK" style="shape=partialRectangle;connectable=0;fillColor=none;top=0;left=0;bottom=0;right=0;editable=1;overflow=hidden;strokeColor=#BAC8D3;fontColor=#EEEEEE;rounded=1;" vertex="1" parent="KBO7zZZN5OWcddZGr8ii-103">
          <mxGeometry width="30" height="30" as="geometry">
            <mxRectangle width="30" height="30" as="alternateBounds" />
          </mxGeometry>
        </mxCell>
        <mxCell id="KBO7zZZN5OWcddZGr8ii-105" value="character_id" style="shape=partialRectangle;connectable=0;fillColor=none;top=0;left=0;bottom=0;right=0;align=left;spacingLeft=6;overflow=hidden;strokeColor=#BAC8D3;fontColor=#EEEEEE;rounded=1;" vertex="1" parent="KBO7zZZN5OWcddZGr8ii-103">
          <mxGeometry x="30" width="150" height="30" as="geometry">
            <mxRectangle width="150" height="30" as="alternateBounds" />
          </mxGeometry>
        </mxCell>
        <mxCell id="KBO7zZZN5OWcddZGr8ii-138" style="shape=tableRow;horizontal=0;startSize=0;swimlaneHead=0;swimlaneBody=0;fillColor=none;collapsible=0;dropTarget=0;points=[[0,0.5],[1,0.5]];portConstraint=eastwest;top=0;left=0;right=0;bottom=0;strokeColor=#BAC8D3;fontColor=#EEEEEE;rounded=1;" vertex="1" parent="KBO7zZZN5OWcddZGr8ii-99">
          <mxGeometry y="90" width="180" height="30" as="geometry" />
        </mxCell>
        <mxCell id="KBO7zZZN5OWcddZGr8ii-139" style="shape=partialRectangle;connectable=0;fillColor=none;top=0;left=0;bottom=0;right=0;editable=1;overflow=hidden;strokeColor=#BAC8D3;fontColor=#EEEEEE;rounded=1;" vertex="1" parent="KBO7zZZN5OWcddZGr8ii-138">
          <mxGeometry width="30" height="30" as="geometry">
            <mxRectangle width="30" height="30" as="alternateBounds" />
          </mxGeometry>
        </mxCell>
        <mxCell id="KBO7zZZN5OWcddZGr8ii-140" value="die_type" style="shape=partialRectangle;connectable=0;fillColor=none;top=0;left=0;bottom=0;right=0;align=left;spacingLeft=6;overflow=hidden;strokeColor=#BAC8D3;fontColor=#EEEEEE;rounded=1;" vertex="1" parent="KBO7zZZN5OWcddZGr8ii-138">
          <mxGeometry x="30" width="150" height="30" as="geometry">
            <mxRectangle width="150" height="30" as="alternateBounds" />
          </mxGeometry>
        </mxCell>
        <mxCell id="KBO7zZZN5OWcddZGr8ii-142" value="" style="edgeStyle=entityRelationEdgeStyle;fontSize=12;html=1;endArrow=ERoneToMany;startArrow=ERmandOne;rounded=1;strokeColor=#0B4D6A;exitX=1;exitY=0.5;exitDx=0;exitDy=0;" edge="1" parent="1" source="KBO7zZZN5OWcddZGr8ii-12" target="KBO7zZZN5OWcddZGr8ii-103">
          <mxGeometry width="100" height="100" relative="1" as="geometry">
            <mxPoint x="859" y="492" as="sourcePoint" />
            <mxPoint x="959" y="392" as="targetPoint" />
          </mxGeometry>
        </mxCell>
        <mxCell id="KBO7zZZN5OWcddZGr8ii-143" value="attacks" style="shape=table;startSize=30;container=1;collapsible=1;childLayout=tableLayout;fixedRows=1;rowLines=0;fontStyle=1;align=center;resizeLast=1;fillColor=#09555B;strokeColor=#BAC8D3;fontColor=#EEEEEE;rounded=1;" vertex="1" parent="1">
          <mxGeometry x="647" y="299" width="180" height="160" as="geometry" />
        </mxCell>
        <mxCell id="KBO7zZZN5OWcddZGr8ii-144" value="" style="shape=tableRow;horizontal=0;startSize=0;swimlaneHead=0;swimlaneBody=0;fillColor=none;collapsible=0;dropTarget=0;points=[[0,0.5],[1,0.5]];portConstraint=eastwest;top=0;left=0;right=0;bottom=1;strokeColor=#BAC8D3;fontColor=#EEEEEE;rounded=1;" vertex="1" parent="KBO7zZZN5OWcddZGr8ii-143">
          <mxGeometry y="30" width="180" height="30" as="geometry" />
        </mxCell>
        <mxCell id="KBO7zZZN5OWcddZGr8ii-145" value="PK" style="shape=partialRectangle;connectable=0;fillColor=none;top=0;left=0;bottom=0;right=0;fontStyle=1;overflow=hidden;strokeColor=#BAC8D3;fontColor=#EEEEEE;rounded=1;" vertex="1" parent="KBO7zZZN5OWcddZGr8ii-144">
          <mxGeometry width="30" height="30" as="geometry">
            <mxRectangle width="30" height="30" as="alternateBounds" />
          </mxGeometry>
        </mxCell>
        <mxCell id="KBO7zZZN5OWcddZGr8ii-146" value="id" style="shape=partialRectangle;connectable=0;fillColor=none;top=0;left=0;bottom=0;right=0;align=left;spacingLeft=6;fontStyle=5;overflow=hidden;strokeColor=#BAC8D3;fontColor=#EEEEEE;rounded=1;" vertex="1" parent="KBO7zZZN5OWcddZGr8ii-144">
          <mxGeometry x="30" width="150" height="30" as="geometry">
            <mxRectangle width="150" height="30" as="alternateBounds" />
          </mxGeometry>
        </mxCell>
        <mxCell id="KBO7zZZN5OWcddZGr8ii-147" value="" style="shape=tableRow;horizontal=0;startSize=0;swimlaneHead=0;swimlaneBody=0;fillColor=none;collapsible=0;dropTarget=0;points=[[0,0.5],[1,0.5]];portConstraint=eastwest;top=0;left=0;right=0;bottom=0;strokeColor=#BAC8D3;fontColor=#EEEEEE;rounded=1;" vertex="1" parent="KBO7zZZN5OWcddZGr8ii-143">
          <mxGeometry y="60" width="180" height="30" as="geometry" />
        </mxCell>
        <mxCell id="KBO7zZZN5OWcddZGr8ii-148" value="FK" style="shape=partialRectangle;connectable=0;fillColor=none;top=0;left=0;bottom=0;right=0;editable=1;overflow=hidden;strokeColor=#BAC8D3;fontColor=#EEEEEE;rounded=1;" vertex="1" parent="KBO7zZZN5OWcddZGr8ii-147">
          <mxGeometry width="30" height="30" as="geometry">
            <mxRectangle width="30" height="30" as="alternateBounds" />
          </mxGeometry>
        </mxCell>
        <mxCell id="KBO7zZZN5OWcddZGr8ii-149" value="character_id" style="shape=partialRectangle;connectable=0;fillColor=none;top=0;left=0;bottom=0;right=0;align=left;spacingLeft=6;overflow=hidden;strokeColor=#BAC8D3;fontColor=#EEEEEE;rounded=1;" vertex="1" parent="KBO7zZZN5OWcddZGr8ii-147">
          <mxGeometry x="30" width="150" height="30" as="geometry">
            <mxRectangle width="150" height="30" as="alternateBounds" />
          </mxGeometry>
        </mxCell>
        <mxCell id="KBO7zZZN5OWcddZGr8ii-150" style="shape=tableRow;horizontal=0;startSize=0;swimlaneHead=0;swimlaneBody=0;fillColor=none;collapsible=0;dropTarget=0;points=[[0,0.5],[1,0.5]];portConstraint=eastwest;top=0;left=0;right=0;bottom=0;strokeColor=#BAC8D3;fontColor=#EEEEEE;rounded=1;" vertex="1" parent="KBO7zZZN5OWcddZGr8ii-143">
          <mxGeometry y="90" width="180" height="30" as="geometry" />
        </mxCell>
        <mxCell id="KBO7zZZN5OWcddZGr8ii-151" style="shape=partialRectangle;connectable=0;fillColor=none;top=0;left=0;bottom=0;right=0;editable=1;overflow=hidden;strokeColor=#BAC8D3;fontColor=#EEEEEE;rounded=1;" vertex="1" parent="KBO7zZZN5OWcddZGr8ii-150">
          <mxGeometry width="30" height="30" as="geometry">
            <mxRectangle width="30" height="30" as="alternateBounds" />
          </mxGeometry>
        </mxCell>
        <mxCell id="KBO7zZZN5OWcddZGr8ii-152" value="name" style="shape=partialRectangle;connectable=0;fillColor=none;top=0;left=0;bottom=0;right=0;align=left;spacingLeft=6;overflow=hidden;strokeColor=#BAC8D3;fontColor=#EEEEEE;rounded=1;" vertex="1" parent="KBO7zZZN5OWcddZGr8ii-150">
          <mxGeometry x="30" width="150" height="30" as="geometry">
            <mxRectangle width="150" height="30" as="alternateBounds" />
          </mxGeometry>
        </mxCell>
        <mxCell id="KBO7zZZN5OWcddZGr8ii-154" style="shape=tableRow;horizontal=0;startSize=0;swimlaneHead=0;swimlaneBody=0;fillColor=none;collapsible=0;dropTarget=0;points=[[0,0.5],[1,0.5]];portConstraint=eastwest;top=0;left=0;right=0;bottom=0;strokeColor=#BAC8D3;fontColor=#EEEEEE;rounded=1;" vertex="1" parent="KBO7zZZN5OWcddZGr8ii-143">
          <mxGeometry y="120" width="180" height="30" as="geometry" />
        </mxCell>
        <mxCell id="KBO7zZZN5OWcddZGr8ii-155" style="shape=partialRectangle;connectable=0;fillColor=none;top=0;left=0;bottom=0;right=0;editable=1;overflow=hidden;strokeColor=#BAC8D3;fontColor=#EEEEEE;rounded=1;" vertex="1" parent="KBO7zZZN5OWcddZGr8ii-154">
          <mxGeometry width="30" height="30" as="geometry">
            <mxRectangle width="30" height="30" as="alternateBounds" />
          </mxGeometry>
        </mxCell>
        <mxCell id="KBO7zZZN5OWcddZGr8ii-156" style="shape=partialRectangle;connectable=0;fillColor=none;top=0;left=0;bottom=0;right=0;align=left;spacingLeft=6;overflow=hidden;strokeColor=#BAC8D3;fontColor=#EEEEEE;rounded=1;" vertex="1" parent="KBO7zZZN5OWcddZGr8ii-154">
          <mxGeometry x="30" width="150" height="30" as="geometry">
            <mxRectangle width="150" height="30" as="alternateBounds" />
          </mxGeometry>
        </mxCell>
        <mxCell id="KBO7zZZN5OWcddZGr8ii-153" value="" style="edgeStyle=entityRelationEdgeStyle;fontSize=12;html=1;endArrow=ERoneToMany;startArrow=ERmandOne;rounded=1;strokeColor=#0B4D6A;exitX=1;exitY=0.5;exitDx=0;exitDy=0;entryX=0;entryY=0.5;entryDx=0;entryDy=0;" edge="1" parent="1" source="KBO7zZZN5OWcddZGr8ii-12" target="KBO7zZZN5OWcddZGr8ii-144">
          <mxGeometry width="100" height="100" relative="1" as="geometry">
            <mxPoint x="696" y="225" as="sourcePoint" />
            <mxPoint x="757" y="267" as="targetPoint" />
          </mxGeometry>
        </mxCell>
        <mxCell id="KBO7zZZN5OWcddZGr8ii-157" value="attack_dice" style="shape=table;startSize=36;container=1;collapsible=1;childLayout=tableLayout;fixedRows=1;rowLines=0;fontStyle=1;align=center;resizeLast=1;fillColor=#09555B;strokeColor=#BAC8D3;fontColor=#EEEEEE;rounded=1;" vertex="1" parent="1">
          <mxGeometry x="933" y="299" width="180" height="130" as="geometry" />
        </mxCell>
        <mxCell id="KBO7zZZN5OWcddZGr8ii-158" value="" style="shape=tableRow;horizontal=0;startSize=0;swimlaneHead=0;swimlaneBody=0;fillColor=none;collapsible=0;dropTarget=0;points=[[0,0.5],[1,0.5]];portConstraint=eastwest;top=0;left=0;right=0;bottom=1;strokeColor=#BAC8D3;fontColor=#EEEEEE;rounded=1;" vertex="1" parent="KBO7zZZN5OWcddZGr8ii-157">
          <mxGeometry y="36" width="180" height="30" as="geometry" />
        </mxCell>
        <mxCell id="KBO7zZZN5OWcddZGr8ii-159" value="PK" style="shape=partialRectangle;connectable=0;fillColor=none;top=0;left=0;bottom=0;right=0;fontStyle=1;overflow=hidden;strokeColor=#BAC8D3;fontColor=#EEEEEE;rounded=1;" vertex="1" parent="KBO7zZZN5OWcddZGr8ii-158">
          <mxGeometry width="30" height="30" as="geometry">
            <mxRectangle width="30" height="30" as="alternateBounds" />
          </mxGeometry>
        </mxCell>
        <mxCell id="KBO7zZZN5OWcddZGr8ii-160" value="id" style="shape=partialRectangle;connectable=0;fillColor=none;top=0;left=0;bottom=0;right=0;align=left;spacingLeft=6;fontStyle=5;overflow=hidden;strokeColor=#BAC8D3;fontColor=#EEEEEE;rounded=1;" vertex="1" parent="KBO7zZZN5OWcddZGr8ii-158">
          <mxGeometry x="30" width="150" height="30" as="geometry">
            <mxRectangle width="150" height="30" as="alternateBounds" />
          </mxGeometry>
        </mxCell>
        <mxCell id="KBO7zZZN5OWcddZGr8ii-161" value="" style="shape=tableRow;horizontal=0;startSize=0;swimlaneHead=0;swimlaneBody=0;fillColor=none;collapsible=0;dropTarget=0;points=[[0,0.5],[1,0.5]];portConstraint=eastwest;top=0;left=0;right=0;bottom=0;strokeColor=#BAC8D3;fontColor=#EEEEEE;rounded=1;" vertex="1" parent="KBO7zZZN5OWcddZGr8ii-157">
          <mxGeometry y="66" width="180" height="30" as="geometry" />
        </mxCell>
        <mxCell id="KBO7zZZN5OWcddZGr8ii-162" value="FK" style="shape=partialRectangle;connectable=0;fillColor=none;top=0;left=0;bottom=0;right=0;editable=1;overflow=hidden;strokeColor=#BAC8D3;fontColor=#EEEEEE;rounded=1;" vertex="1" parent="KBO7zZZN5OWcddZGr8ii-161">
          <mxGeometry width="30" height="30" as="geometry">
            <mxRectangle width="30" height="30" as="alternateBounds" />
          </mxGeometry>
        </mxCell>
        <mxCell id="KBO7zZZN5OWcddZGr8ii-163" value="attack_id" style="shape=partialRectangle;connectable=0;fillColor=none;top=0;left=0;bottom=0;right=0;align=left;spacingLeft=6;overflow=hidden;strokeColor=#BAC8D3;fontColor=#EEEEEE;rounded=1;" vertex="1" parent="KBO7zZZN5OWcddZGr8ii-161">
          <mxGeometry x="30" width="150" height="30" as="geometry">
            <mxRectangle width="150" height="30" as="alternateBounds" />
          </mxGeometry>
        </mxCell>
        <mxCell id="KBO7zZZN5OWcddZGr8ii-164" style="shape=tableRow;horizontal=0;startSize=0;swimlaneHead=0;swimlaneBody=0;fillColor=none;collapsible=0;dropTarget=0;points=[[0,0.5],[1,0.5]];portConstraint=eastwest;top=0;left=0;right=0;bottom=0;strokeColor=#BAC8D3;fontColor=#EEEEEE;rounded=1;" vertex="1" parent="KBO7zZZN5OWcddZGr8ii-157">
          <mxGeometry y="96" width="180" height="30" as="geometry" />
        </mxCell>
        <mxCell id="KBO7zZZN5OWcddZGr8ii-165" style="shape=partialRectangle;connectable=0;fillColor=none;top=0;left=0;bottom=0;right=0;editable=1;overflow=hidden;strokeColor=#BAC8D3;fontColor=#EEEEEE;rounded=1;" vertex="1" parent="KBO7zZZN5OWcddZGr8ii-164">
          <mxGeometry width="30" height="30" as="geometry">
            <mxRectangle width="30" height="30" as="alternateBounds" />
          </mxGeometry>
        </mxCell>
        <mxCell id="KBO7zZZN5OWcddZGr8ii-166" value="die_type" style="shape=partialRectangle;connectable=0;fillColor=none;top=0;left=0;bottom=0;right=0;align=left;spacingLeft=6;overflow=hidden;strokeColor=#BAC8D3;fontColor=#EEEEEE;rounded=1;" vertex="1" parent="KBO7zZZN5OWcddZGr8ii-164">
          <mxGeometry x="30" width="150" height="30" as="geometry">
            <mxRectangle width="150" height="30" as="alternateBounds" />
          </mxGeometry>
        </mxCell>
        <mxCell id="KBO7zZZN5OWcddZGr8ii-167" value="languages" style="shape=table;startSize=30;container=1;collapsible=1;childLayout=tableLayout;fixedRows=1;rowLines=0;fontStyle=1;align=center;resizeLast=1;fillColor=#09555B;strokeColor=#BAC8D3;fontColor=#EEEEEE;rounded=1;" vertex="1" parent="1">
          <mxGeometry x="647" y="506" width="180" height="130" as="geometry" />
        </mxCell>
        <mxCell id="KBO7zZZN5OWcddZGr8ii-168" value="" style="shape=tableRow;horizontal=0;startSize=0;swimlaneHead=0;swimlaneBody=0;fillColor=none;collapsible=0;dropTarget=0;points=[[0,0.5],[1,0.5]];portConstraint=eastwest;top=0;left=0;right=0;bottom=1;strokeColor=#BAC8D3;fontColor=#EEEEEE;rounded=1;" vertex="1" parent="KBO7zZZN5OWcddZGr8ii-167">
          <mxGeometry y="30" width="180" height="30" as="geometry" />
        </mxCell>
        <mxCell id="KBO7zZZN5OWcddZGr8ii-169" value="PK" style="shape=partialRectangle;connectable=0;fillColor=none;top=0;left=0;bottom=0;right=0;fontStyle=1;overflow=hidden;strokeColor=#BAC8D3;fontColor=#EEEEEE;rounded=1;" vertex="1" parent="KBO7zZZN5OWcddZGr8ii-168">
          <mxGeometry width="30" height="30" as="geometry">
            <mxRectangle width="30" height="30" as="alternateBounds" />
          </mxGeometry>
        </mxCell>
        <mxCell id="KBO7zZZN5OWcddZGr8ii-170" value="id" style="shape=partialRectangle;connectable=0;fillColor=none;top=0;left=0;bottom=0;right=0;align=left;spacingLeft=6;fontStyle=5;overflow=hidden;strokeColor=#BAC8D3;fontColor=#EEEEEE;rounded=1;" vertex="1" parent="KBO7zZZN5OWcddZGr8ii-168">
          <mxGeometry x="30" width="150" height="30" as="geometry">
            <mxRectangle width="150" height="30" as="alternateBounds" />
          </mxGeometry>
        </mxCell>
        <mxCell id="KBO7zZZN5OWcddZGr8ii-171" value="" style="shape=tableRow;horizontal=0;startSize=0;swimlaneHead=0;swimlaneBody=0;fillColor=none;collapsible=0;dropTarget=0;points=[[0,0.5],[1,0.5]];portConstraint=eastwest;top=0;left=0;right=0;bottom=0;strokeColor=#BAC8D3;fontColor=#EEEEEE;rounded=1;" vertex="1" parent="KBO7zZZN5OWcddZGr8ii-167">
          <mxGeometry y="60" width="180" height="30" as="geometry" />
        </mxCell>
        <mxCell id="KBO7zZZN5OWcddZGr8ii-172" value="FK" style="shape=partialRectangle;connectable=0;fillColor=none;top=0;left=0;bottom=0;right=0;editable=1;overflow=hidden;strokeColor=#BAC8D3;fontColor=#EEEEEE;rounded=1;" vertex="1" parent="KBO7zZZN5OWcddZGr8ii-171">
          <mxGeometry width="30" height="30" as="geometry">
            <mxRectangle width="30" height="30" as="alternateBounds" />
          </mxGeometry>
        </mxCell>
        <mxCell id="KBO7zZZN5OWcddZGr8ii-173" value="character_id" style="shape=partialRectangle;connectable=0;fillColor=none;top=0;left=0;bottom=0;right=0;align=left;spacingLeft=6;overflow=hidden;strokeColor=#BAC8D3;fontColor=#EEEEEE;rounded=1;" vertex="1" parent="KBO7zZZN5OWcddZGr8ii-171">
          <mxGeometry x="30" width="150" height="30" as="geometry">
            <mxRectangle width="150" height="30" as="alternateBounds" />
          </mxGeometry>
        </mxCell>
        <mxCell id="KBO7zZZN5OWcddZGr8ii-174" style="shape=tableRow;horizontal=0;startSize=0;swimlaneHead=0;swimlaneBody=0;fillColor=none;collapsible=0;dropTarget=0;points=[[0,0.5],[1,0.5]];portConstraint=eastwest;top=0;left=0;right=0;bottom=0;strokeColor=#BAC8D3;fontColor=#EEEEEE;rounded=1;" vertex="1" parent="KBO7zZZN5OWcddZGr8ii-167">
          <mxGeometry y="90" width="180" height="30" as="geometry" />
        </mxCell>
        <mxCell id="KBO7zZZN5OWcddZGr8ii-175" style="shape=partialRectangle;connectable=0;fillColor=none;top=0;left=0;bottom=0;right=0;editable=1;overflow=hidden;strokeColor=#BAC8D3;fontColor=#EEEEEE;rounded=1;" vertex="1" parent="KBO7zZZN5OWcddZGr8ii-174">
          <mxGeometry width="30" height="30" as="geometry">
            <mxRectangle width="30" height="30" as="alternateBounds" />
          </mxGeometry>
        </mxCell>
        <mxCell id="KBO7zZZN5OWcddZGr8ii-176" value="name" style="shape=partialRectangle;connectable=0;fillColor=none;top=0;left=0;bottom=0;right=0;align=left;spacingLeft=6;overflow=hidden;strokeColor=#BAC8D3;fontColor=#EEEEEE;rounded=1;" vertex="1" parent="KBO7zZZN5OWcddZGr8ii-174">
          <mxGeometry x="30" width="150" height="30" as="geometry">
            <mxRectangle width="150" height="30" as="alternateBounds" />
          </mxGeometry>
        </mxCell>
        <mxCell id="KBO7zZZN5OWcddZGr8ii-177" value="" style="edgeStyle=entityRelationEdgeStyle;fontSize=12;html=1;endArrow=ERoneToMany;startArrow=ERmandOne;rounded=1;strokeColor=#0B4D6A;exitX=1;exitY=0.5;exitDx=0;exitDy=0;entryX=0;entryY=0.5;entryDx=0;entryDy=0;" edge="1" parent="1" source="KBO7zZZN5OWcddZGr8ii-12" target="KBO7zZZN5OWcddZGr8ii-171">
          <mxGeometry width="100" height="100" relative="1" as="geometry">
            <mxPoint x="709" y="130" as="sourcePoint" />
            <mxPoint x="774" y="366" as="targetPoint" />
          </mxGeometry>
        </mxCell>
        <mxCell id="KBO7zZZN5OWcddZGr8ii-178" value="" style="edgeStyle=entityRelationEdgeStyle;fontSize=12;html=1;endArrow=ERoneToMany;startArrow=ERmandOne;rounded=1;strokeColor=#0B4D6A;exitX=1;exitY=0.5;exitDx=0;exitDy=0;entryX=0;entryY=0.5;entryDx=0;entryDy=0;" edge="1" parent="1" source="KBO7zZZN5OWcddZGr8ii-144" target="KBO7zZZN5OWcddZGr8ii-161">
          <mxGeometry width="100" height="100" relative="1" as="geometry">
            <mxPoint x="939" y="359" as="sourcePoint" />
            <mxPoint x="1004" y="831" as="targetPoint" />
          </mxGeometry>
        </mxCell>
        <mxCell id="KBO7zZZN5OWcddZGr8ii-304" value="skill_proficiencies" style="shape=table;startSize=30;container=1;collapsible=1;childLayout=tableLayout;fixedRows=1;rowLines=0;fontStyle=1;align=center;resizeLast=1;fillColor=#09555B;strokeColor=#BAC8D3;fontColor=#EEEEEE;rounded=1;" vertex="1" parent="1">
          <mxGeometry x="647" y="682" width="180" height="130" as="geometry" />
        </mxCell>
        <mxCell id="KBO7zZZN5OWcddZGr8ii-305" value="" style="shape=tableRow;horizontal=0;startSize=0;swimlaneHead=0;swimlaneBody=0;fillColor=none;collapsible=0;dropTarget=0;points=[[0,0.5],[1,0.5]];portConstraint=eastwest;top=0;left=0;right=0;bottom=1;strokeColor=#BAC8D3;fontColor=#EEEEEE;rounded=1;" vertex="1" parent="KBO7zZZN5OWcddZGr8ii-304">
          <mxGeometry y="30" width="180" height="30" as="geometry" />
        </mxCell>
        <mxCell id="KBO7zZZN5OWcddZGr8ii-306" value="PK" style="shape=partialRectangle;connectable=0;fillColor=none;top=0;left=0;bottom=0;right=0;fontStyle=1;overflow=hidden;strokeColor=#BAC8D3;fontColor=#EEEEEE;rounded=1;" vertex="1" parent="KBO7zZZN5OWcddZGr8ii-305">
          <mxGeometry width="30" height="30" as="geometry">
            <mxRectangle width="30" height="30" as="alternateBounds" />
          </mxGeometry>
        </mxCell>
        <mxCell id="KBO7zZZN5OWcddZGr8ii-307" value="id" style="shape=partialRectangle;connectable=0;fillColor=none;top=0;left=0;bottom=0;right=0;align=left;spacingLeft=6;fontStyle=5;overflow=hidden;strokeColor=#BAC8D3;fontColor=#EEEEEE;rounded=1;" vertex="1" parent="KBO7zZZN5OWcddZGr8ii-305">
          <mxGeometry x="30" width="150" height="30" as="geometry">
            <mxRectangle width="150" height="30" as="alternateBounds" />
          </mxGeometry>
        </mxCell>
        <mxCell id="KBO7zZZN5OWcddZGr8ii-308" value="" style="shape=tableRow;horizontal=0;startSize=0;swimlaneHead=0;swimlaneBody=0;fillColor=none;collapsible=0;dropTarget=0;points=[[0,0.5],[1,0.5]];portConstraint=eastwest;top=0;left=0;right=0;bottom=0;strokeColor=#BAC8D3;fontColor=#EEEEEE;rounded=1;" vertex="1" parent="KBO7zZZN5OWcddZGr8ii-304">
          <mxGeometry y="60" width="180" height="30" as="geometry" />
        </mxCell>
        <mxCell id="KBO7zZZN5OWcddZGr8ii-309" value="FK" style="shape=partialRectangle;connectable=0;fillColor=none;top=0;left=0;bottom=0;right=0;editable=1;overflow=hidden;strokeColor=#BAC8D3;fontColor=#EEEEEE;rounded=1;" vertex="1" parent="KBO7zZZN5OWcddZGr8ii-308">
          <mxGeometry width="30" height="30" as="geometry">
            <mxRectangle width="30" height="30" as="alternateBounds" />
          </mxGeometry>
        </mxCell>
        <mxCell id="KBO7zZZN5OWcddZGr8ii-310" value="character_id" style="shape=partialRectangle;connectable=0;fillColor=none;top=0;left=0;bottom=0;right=0;align=left;spacingLeft=6;overflow=hidden;strokeColor=#BAC8D3;fontColor=#EEEEEE;rounded=1;" vertex="1" parent="KBO7zZZN5OWcddZGr8ii-308">
          <mxGeometry x="30" width="150" height="30" as="geometry">
            <mxRectangle width="150" height="30" as="alternateBounds" />
          </mxGeometry>
        </mxCell>
        <mxCell id="KBO7zZZN5OWcddZGr8ii-311" style="shape=tableRow;horizontal=0;startSize=0;swimlaneHead=0;swimlaneBody=0;fillColor=none;collapsible=0;dropTarget=0;points=[[0,0.5],[1,0.5]];portConstraint=eastwest;top=0;left=0;right=0;bottom=0;strokeColor=#BAC8D3;fontColor=#EEEEEE;rounded=1;" vertex="1" parent="KBO7zZZN5OWcddZGr8ii-304">
          <mxGeometry y="90" width="180" height="30" as="geometry" />
        </mxCell>
        <mxCell id="KBO7zZZN5OWcddZGr8ii-312" style="shape=partialRectangle;connectable=0;fillColor=none;top=0;left=0;bottom=0;right=0;editable=1;overflow=hidden;strokeColor=#BAC8D3;fontColor=#EEEEEE;rounded=1;" vertex="1" parent="KBO7zZZN5OWcddZGr8ii-311">
          <mxGeometry width="30" height="30" as="geometry">
            <mxRectangle width="30" height="30" as="alternateBounds" />
          </mxGeometry>
        </mxCell>
        <mxCell id="KBO7zZZN5OWcddZGr8ii-313" value="skill" style="shape=partialRectangle;connectable=0;fillColor=none;top=0;left=0;bottom=0;right=0;align=left;spacingLeft=6;overflow=hidden;strokeColor=#BAC8D3;fontColor=#EEEEEE;rounded=1;" vertex="1" parent="KBO7zZZN5OWcddZGr8ii-311">
          <mxGeometry x="30" width="150" height="30" as="geometry">
            <mxRectangle width="150" height="30" as="alternateBounds" />
          </mxGeometry>
        </mxCell>
        <mxCell id="KBO7zZZN5OWcddZGr8ii-317" value="" style="edgeStyle=entityRelationEdgeStyle;fontSize=12;html=1;endArrow=ERoneToMany;startArrow=ERmandOne;rounded=1;strokeColor=#0B4D6A;exitX=1;exitY=0.5;exitDx=0;exitDy=0;entryX=0;entryY=0.5;entryDx=0;entryDy=0;" edge="1" parent="1" source="KBO7zZZN5OWcddZGr8ii-12" target="KBO7zZZN5OWcddZGr8ii-308">
          <mxGeometry width="100" height="100" relative="1" as="geometry">
            <mxPoint x="515" y="67" as="sourcePoint" />
            <mxPoint x="657" y="591" as="targetPoint" />
          </mxGeometry>
        </mxCell>
      </root>
    </mxGraphModel>
  </diagram>
</mxfile>
